<?xml version="1.0" ?><svg style="enable-background:new 0 0 100 100;" version="1.1" viewBox="0 0 100 100" xml:space="preserve" xmlns="http://www.w3.org/2000/svg" xmlns:xlink="http://www.w3.org/1999/xlink"><g id="Layer_1"/><g id="Layer_2"/><g id="Layer_3"><g><path d="M92,11l-2.299,0c-0.421,0-0.796-0.263-0.94-0.658l-1.845-5.075C85.766,2.105,82.761,0,79.397,0h-2.794    c-3.364,0-6.369,2.105-7.518,5.266l-1.845,5.075C67.096,10.737,66.72,11,66.3,11H65.7c-0.42,0-0.796-0.263-0.94-0.658    l-1.846-5.076C61.765,2.105,58.761,0,55.397,0H8C3.582,0,0,3.582,0,8v84c0,4.418,3.582,8,8,8h84c4.418,0,8-3.582,8-8V19    C100,14.582,96.418,11,92,11z M98,92c0,3.308-2.692,6-6,6H8c-3.308,0-6-2.692-6-6V8c0-3.308,2.692-6,6-6h47.397    c2.514,0,4.78,1.587,5.639,3.95l1.846,5.076C63.311,12.206,64.444,13,65.7,13H66.3c1.257,0,2.39-0.794,2.819-1.975l1.845-5.075    C71.823,3.587,74.089,2,76.603,2h2.794c2.514,0,4.78,1.587,5.639,3.95l1.845,5.075C87.31,12.206,88.444,13,89.701,13l2.3,0    c3.308,0,6,2.692,6,6V92z"/><path d="M83.805,20H61.61c-3.309,0-6.293-1.942-7.565-4.923l-0.919-2.153C51.854,9.942,48.87,8,45.561,8H16.195    C11.669,8,8,11.582,8,16v26c0,4.418,3.669,8,8.195,8h67.61C88.331,50,92,46.418,92,42V28C92,23.582,88.331,20,83.805,20z M90,42    c0,3.308-2.779,6-6.195,6h-67.61C12.779,48,10,45.308,10,42V16c0-3.308,2.779-6,6.195-6h29.366c2.517,0,4.764,1.456,5.725,3.708    l0.919,2.153C53.797,19.591,57.488,22,61.61,22h22.195C87.221,22,90,24.692,90,28V42z"/><circle cx="17" cy="15" r="1"/><circle cx="26.333" cy="15" r="1"/><circle cx="35.667" cy="15" r="1"/><circle cx="45" cy="15" r="1"/><path d="M82,28H17c-0.55,0-1,0.45-1,1s0.45,1,1,1h65c0.55,0,1-0.45,1-1S82.55,28,82,28z"/><path d="M82,40H17c-0.55,0-1,0.45-1,1s0.45,1,1,1h65c0.55,0,1-0.45,1-1S82.55,40,82,40z"/><path d="M82,34H17c-0.55,0-1,0.45-1,1s0.45,1,1,1h65c0.55,0,1-0.45,1-1S82.55,34,82,34z"/><path d="M27,56H13c-2.75,0-5,2.25-5,5s2.25,5,5,5h14c2.75,0,5-2.25,5-5S29.75,56,27,56z M27,64H13c-1.654,0-3-1.346-3-3    c0-1.654,1.346-3,3-3h14c1.654,0,3,1.346,3,3C30,62.654,28.654,64,27,64z"/><path d="M57,56H43c-2.75,0-5,2.25-5,5s2.25,5,5,5h14c2.75,0,5-2.25,5-5S59.75,56,57,56z M57,64H43c-1.654,0-3-1.346-3-3    c0-1.654,1.346-3,3-3h14c1.654,0,3,1.346,3,3C60,62.654,58.654,64,57,64z"/><path d="M87,56H73c-2.75,0-5,2.25-5,5s2.25,5,5,5h14c2.75,0,5-2.25,5-5S89.75,56,87,56z M87,64H73c-1.654,0-3-1.346-3-3    c0-1.654,1.346-3,3-3h14c1.654,0,3,1.346,3,3C90,62.654,88.654,64,87,64z"/><path d="M27,69H13c-2.75,0-5,2.25-5,5s2.25,5,5,5h14c2.75,0,5-2.25,5-5S29.75,69,27,69z M27,77H13c-1.654,0-3-1.346-3-3    c0-1.654,1.346-3,3-3h14c1.654,0,3,1.346,3,3C30,75.654,28.654,77,27,77z"/><path d="M57,69H43c-2.75,0-5,2.25-5,5s2.25,5,5,5h14c2.75,0,5-2.25,5-5S59.75,69,57,69z M57,77H43c-1.654,0-3-1.346-3-3    c0-1.654,1.346-3,3-3h14c1.654,0,3,1.346,3,3C60,75.654,58.654,77,57,77z"/><path d="M87,69H73c-2.75,0-5,2.25-5,5s2.25,5,5,5h14c2.75,0,5-2.25,5-5S89.75,69,87,69z M87,77H73c-1.654,0-3-1.346-3-3    c0-1.654,1.346-3,3-3h14c1.654,0,3,1.346,3,3C90,75.654,88.654,77,87,77z"/><path d="M27,82H13c-2.75,0-5,2.25-5,5s2.25,5,5,5h14c2.75,0,5-2.25,5-5S29.75,82,27,82z M27,90H13c-1.654,0-3-1.346-3-3    c0-1.654,1.346-3,3-3h14c1.654,0,3,1.346,3,3C30,88.654,28.654,90,27,90z"/><path d="M57,82H43c-2.75,0-5,2.25-5,5s2.25,5,5,5h14c2.75,0,5-2.25,5-5S59.75,82,57,82z M57,90H43c-1.654,0-3-1.346-3-3    c0-1.654,1.346-3,3-3h14c1.654,0,3,1.346,3,3C60,88.654,58.654,90,57,90z"/><path d="M87,82H73c-2.75,0-5,2.25-5,5s2.25,5,5,5h14c2.75,0,5-2.25,5-5S89.75,82,87,82z M87,90H73c-1.654,0-3-1.346-3-3    c0-1.654,1.346-3,3-3h14c1.654,0,3,1.346,3,3C90,88.654,88.654,90,87,90z"/></g></g><g id="Layer_4"/><g id="Layer_5"/><g id="Layer_6"/><g id="Layer_7"/><g id="Layer_10"/><g id="Layer_8"/><g id="Layer_9"/><g id="Layer_11"/><g id="Layer_11_copy"/><g id="Layer_11_copy_2"/><g id="Layer_11_copy_3"/><g id="Layer_12"/><g id="Layer_12_copy"/><g id="Layer_12_copy_2"/><g id="Layer_12_copy_3"/><g id="Layer_13"/><g id="Layer_13_copy"/><g id="Layer_13_copy_2"/><g id="Layer_13_copy_3"/><g id="Layer_11_copy_4"/><g id="Layer_4_copy"/></svg>