<?xml version="1.0" ?><svg style="enable-background:new 0 0 100 100;" version="1.1" viewBox="0 0 100 100" xml:space="preserve" xmlns="http://www.w3.org/2000/svg" xmlns:xlink="http://www.w3.org/1999/xlink"><g id="Layer_1"/><g id="Layer_2"/><g id="Layer_3"/><g id="Layer_4"/><g id="Layer_5"/><g id="Layer_6"><g><path d="M92,0H8C3.582,0,0,3.582,0,8v60.597c0,0.908,0.309,1.789,0.876,2.499l2.839,3.549c0.181,0.226,0.255,0.519,0.203,0.804    l-3.822,21.02C0.032,96.822,0,97.181,0,97.541V98c0,1.105,0.895,2,2,2h0.459c0.36,0,0.719-0.032,1.073-0.097l21.02-3.822    c0.059-0.011,0.119-0.016,0.179-0.016c0.225,0,0.446,0.076,0.625,0.219l3.549,2.839c0.709,0.567,1.59,0.876,2.499,0.876H92    c4.418,0,8-3.582,8-8V8C100,3.582,96.418,0,92,0z M98,92c0,3.308-2.692,6-6,6H31.403c-0.452,0-0.896-0.156-1.249-0.438    l-3.549-2.839c-0.53-0.424-1.195-0.657-1.874-0.657c-0.179,0-0.36,0.016-0.537,0.048l-21.02,3.822C2.939,97.978,2.698,98,2.459,98    H2v-0.459c0-0.239,0.022-0.48,0.065-0.716l3.822-21.02c0.155-0.854-0.067-1.733-0.609-2.411l-2.839-3.549    C2.156,69.493,2,69.049,2,68.597V8c0-3.308,2.692-6,6-6h84c3.308,0,6,2.692,6,6V92z"/><path d="M81.945,67.135l-16.161-9.154l-2.862,1.626c0,0-8.975-6.731-14.023-11.779C43.85,42.779,37.68,33.244,37.68,33.244    L38.802,31L30.84,19.819c-0.777-1.143-2.026-1.736-3.283-1.736c-1.007,0-2.019,0.38-2.801,1.162l-7.251,7.251    c-1.319,1.319-1.541,3.38-0.532,4.949c0,0,15.66,21.431,22.391,28.162c13.462,13.462,31.571,21.442,31.571,21.442    c0.626,0.368,1.32,0.548,2.01,0.548c1.026,0,2.042-0.397,2.806-1.162l7.045-7.045C84.648,71.537,84.226,68.427,81.945,67.135z     M81.38,71.976l-7.045,7.045c-0.371,0.371-0.866,0.576-1.392,0.576c-0.349,0-0.694-0.094-0.996-0.272l-0.101-0.059l-0.106-0.047    c-0.178-0.078-17.937-7.999-30.964-21.026c-6.379-6.379-21.254-26.649-22.149-27.872c-0.466-0.767-0.347-1.774,0.29-2.411    l7.251-7.251c0.371-0.371,0.864-0.576,1.387-0.576c0.664,0,1.258,0.314,1.654,0.896l7.265,10.202l-0.584,1.169l-0.511,1.022    l0.62,0.959c0.257,0.397,6.344,9.772,11.483,14.911c5.09,5.09,13.866,11.687,14.237,11.965l1.048,0.786l1.139-0.647l1.876-1.065    l15.174,8.594c0.539,0.305,0.896,0.832,0.979,1.446C82.022,70.935,81.818,71.538,81.38,71.976z"/></g></g><g id="Layer_7"/><g id="Layer_10"/><g id="Layer_8"/><g id="Layer_9"/><g id="Layer_11"/><g id="Layer_11_copy"/><g id="Layer_11_copy_2"/><g id="Layer_11_copy_3"/><g id="Layer_12"/><g id="Layer_12_copy"/><g id="Layer_12_copy_2"/><g id="Layer_12_copy_3"/><g id="Layer_13"/><g id="Layer_13_copy"/><g id="Layer_13_copy_2"/><g id="Layer_13_copy_3"/><g id="Layer_11_copy_4"/><g id="Layer_4_copy"/></svg>