<?xml version="1.0" encoding="utf-8"?>
<!-- Generator: Adobe Illustrator 16.0.0, SVG Export Plug-In . SVG Version: 6.00 Build 0)  -->
<!DOCTYPE svg PUBLIC "-//W3C//DTD SVG 1.1//EN" "http://www.w3.org/Graphics/SVG/1.1/DTD/svg11.dtd">
<svg version="1.1" id="Layer_1" xmlns="http://www.w3.org/2000/svg" xmlns:xlink="http://www.w3.org/1999/xlink" x="0px" y="0px"
	 width="72px" height="57px" viewBox="0 0 72 57" enable-background="new 0 0 72 57" xml:space="preserve">
<g>
	<g>
		<rect x="0.256" y="15.586" fill="#FDBA38" width="3.167" height="12.125"/>
		<rect x="68.631" y="15.586" fill="#FDBA38" width="3.168" height="12.125"/>
		<rect x="0.256" y="15.586" fill="#FDBA38" width="71.605" height="3.167"/>
		<g>
			<path fill="#F79234" stroke="#FFFFFF" stroke-width="2" stroke-miterlimit="10" d="M40.027,6.224
				c0.613-2.741,2.828-3.559,5.045-3.063c2.258,0.505,3.873,2.179,3.26,4.92l-3.811,17.051c-1.974,8.828-8.303,11.012-14.874,9.543
				c-3.467-0.774-7.505-2.778-8.881-6.091c-0.714-1.726-0.192-4.063,1.664-4.792c1.376-0.665,2.917-0.364,4.054,0.229
				c0.72,0.372,1.016,0.946,1.539,1.444c0.914,0.839,1.316,1.31,3.089,1.706c2.298,0.514,4.337-0.47,5.167-4.179L40.027,6.224z"/>
		</g>
		<g>
			<path fill="#7F859F" d="M10.99,45.398c0,1.463-0.858,2.277-2.255,2.277c-0.297,0-0.495-0.021-0.759-0.176
				c-0.297-0.176-0.473-0.506-0.396-0.957c0.066-0.385,0.385-0.66,0.693-0.66c0.044,0,0.143-0.012,0.187-0.022
				c0.143-0.032,0.308-0.144,0.308-0.462v-5.424c0-0.76,0.517-1.1,1.111-1.1c0.594,0,1.111,0.34,1.111,1.1V45.398z M9.878,36.377
				c0.616,0,1.145,0.286,1.145,1.012c0,0.727-0.528,1.013-1.145,1.013c-0.616,0-1.144-0.286-1.144-1.013
				C8.734,36.663,9.263,36.377,9.878,36.377z"/>
			<path fill="#7F859F" d="M16.204,45.674l-0.088-0.463c-0.418,0.396-1.012,0.649-1.672,0.649h-0.242
				c-0.913,0-2.255-0.495-2.255-2.222c0-1.662,1.265-2.189,2.695-2.189h1.133c-0.022-0.649-0.484-0.826-1.012-0.826
				c-0.253,0-0.473,0.045-0.737,0.121c-0.176,0.056-0.319,0.133-0.517,0.221c-0.396,0.197-0.979,0.044-1.177-0.396
				c-0.209-0.439-0.033-0.891,0.352-1.177c0.583-0.429,1.507-0.595,2.255-0.595c1.595,0,3.003,0.562,3.003,2.938v3.939H16.204z
				 M15.775,43.066h-1.001c-0.418,0-0.649,0.209-0.649,0.561c0,0.363,0.231,0.539,0.616,0.539h0.154c0.407,0,0.88-0.242,0.88-0.704
				V43.066z"/>
			<path fill="#7F859F" d="M22.947,45.674h-2.289l-2.134-5.413c-0.253-0.649,0.176-1.243,0.748-1.408
				c0.583-0.165,1.232,0.055,1.463,0.759l1.1,3.4l1.067-3.411c0.209-0.671,0.836-0.902,1.419-0.748
				c0.572,0.153,0.958,0.759,0.704,1.419L22.947,45.674z"/>
			<path fill="#7F859F" d="M29.679,45.674l-0.088-0.463c-0.418,0.396-1.012,0.649-1.672,0.649h-0.242
				c-0.913,0-2.255-0.495-2.255-2.222c0-1.662,1.265-2.189,2.695-2.189h1.133c-0.022-0.649-0.484-0.826-1.012-0.826
				c-0.253,0-0.473,0.045-0.737,0.121c-0.176,0.056-0.319,0.133-0.517,0.221c-0.396,0.197-0.979,0.044-1.177-0.396
				c-0.209-0.439-0.033-0.891,0.352-1.177c0.583-0.429,1.507-0.595,2.255-0.595c1.595,0,3.003,0.562,3.003,2.938v3.939H29.679z
				 M29.25,43.066h-1.001c-0.418,0-0.649,0.209-0.649,0.561c0,0.363,0.231,0.539,0.616,0.539h0.154c0.407,0,0.88-0.242,0.88-0.704
				V43.066z"/>
			<path fill="#7F859F" d="M32.439,37.477c0-0.726,0.539-1.1,1.111-1.1c0.572,0,1.089,0.374,1.089,1.1v3.829l1.947-2.146
				c0.374-0.418,1.067-0.527,1.529-0.176s0.528,1.133,0.121,1.519L36.785,41.9l2.432,3.773H36.73l-1.43-2.354l-0.66,0.638v1.717
				h-2.2V37.477z"/>
			<path fill="#7F859F" d="M39.336,41.822c0-2.365,1.695-3.047,3.191-3.047c1.463,0,3.189,0.682,3.189,3.047v1.013
				c0,2.365-1.727,3.048-3.189,3.048s-3.191-0.683-3.191-3.048V41.822z M43.506,41.724c0-0.78-0.506-1.089-0.979-1.089
				s-0.979,0.309-0.979,1.089v1.21c0,0.781,0.507,1.09,0.979,1.09s0.979-0.309,0.979-1.09V41.724z"/>
			<path fill="#7F859F" d="M46.662,45.674v-5.776c0-0.726,0.528-1.101,1.111-1.101c0.43,0,0.836,0.209,1.023,0.617
				c0.406-0.386,0.924-0.617,1.463-0.617c0.165,0,0.352,0.022,0.518,0.088c0.418,0.177,0.66,0.617,0.582,1.134
				c-0.076,0.517-0.473,0.847-0.957,0.847c-0.153,0-0.352-0.011-0.506,0c-0.604,0.045-0.968,0.386-1.001,0.936v3.873H46.662z"/>
			<path fill="#7F859F" d="M51.777,42.813v-0.968c0-2.343,1.727-3.048,3.135-3.048c1.529,0,3.037,0.595,3.037,3.51
				c0,0.188-0.022,0.496-0.055,0.683h-3.939V43c0,0.748,0.727,1.001,1.254,1.001c0.539,0,0.771-0.044,1.068-0.143
				c0.164-0.056,0.33-0.144,0.517-0.165c0.374-0.045,0.726,0.088,0.869,0.418c0.231,0.539-0.033,1.001-0.562,1.309
				c-0.352,0.209-1.133,0.44-1.936,0.44C53.57,45.86,51.777,45.112,51.777,42.813z M53.955,41.548h1.859
				c0.033-0.726-0.406-0.968-0.891-0.968S53.967,40.822,53.955,41.548z"/>
			<path fill="#7F859F" d="M63.008,45.674l-0.088-0.463c-0.418,0.396-1.012,0.649-1.672,0.649h-0.242
				c-0.912,0-2.255-0.495-2.255-2.222c0-1.662,1.265-2.189,2.695-2.189h1.134c-0.022-0.649-0.484-0.826-1.013-0.826
				c-0.253,0-0.474,0.045-0.737,0.121c-0.176,0.056-0.318,0.133-0.518,0.221c-0.396,0.197-0.979,0.044-1.177-0.396
				c-0.209-0.439-0.032-0.891,0.353-1.177c0.582-0.429,1.507-0.595,2.255-0.595c1.595,0,3.003,0.562,3.003,2.938v3.939H63.008z
				 M62.58,43.066h-1.002c-0.418,0-0.648,0.209-0.648,0.561c0,0.363,0.23,0.539,0.615,0.539h0.154c0.407,0,0.881-0.242,0.881-0.704
				V43.066z"/>
		</g>
		<rect x="68.75" y="39.607" fill="#7F859F" width="3.166" height="12.125"/>
		<rect x="0.374" y="39.607" fill="#7F859F" width="3.167" height="12.125"/>
		<rect x="0.374" y="48.566" fill="#7F859F" width="71.604" height="3.166"/>
	</g>
	<circle fill="#FFFFFF" cx="44.168" cy="7.331" r="2.063"/>
</g>
</svg>
