<?xml version="1.0" encoding="utf-8"?>
<!-- Generator: Adobe Illustrator 16.0.0, SVG Export Plug-In . SVG Version: 6.00 Build 0)  -->
<!DOCTYPE svg PUBLIC "-//W3C//DTD SVG 1.1//EN" "http://www.w3.org/Graphics/SVG/1.1/DTD/svg11.dtd">
<svg version="1.1" id="Layer_1" xmlns="http://www.w3.org/2000/svg" xmlns:xlink="http://www.w3.org/1999/xlink" x="0px" y="0px"
	 width="472.17px" height="117.76px" viewBox="0 0 472.17 117.76" enable-background="new 0 0 472.17 117.76" xml:space="preserve">
<g>
	<linearGradient id="SVGID_1_" gradientUnits="userSpaceOnUse" x1="0.002" y1="58.8257" x2="472.168" y2="58.8257">
		<stop  offset="0" style="stop-color:#4ABCD0"/>
		<stop  offset="1" style="stop-color:#4F5CA2"/>
	</linearGradient>
	<path fill-rule="evenodd" clip-rule="evenodd" fill="url(#SVGID_1_)" d="M472.168-0.055c0,39.349,0,78.396,0,117.761
		c-157.5,0-314.688,0-472.166,0c0-39.38,0-78.427,0-117.761C157.377-0.055,314.441-0.055,472.168-0.055z M6.959,7.157
		c-0.166,1.428-0.411,2.555-0.411,3.682c-0.021,31.82,0.074,63.642-0.116,95.46c-0.028,4.747,2.524,4.458,5.68,4.457
		c149.271-0.021,298.542-0.017,447.812-0.032c1.754-0.001,3.508-0.217,5.461-0.345c0-34.638,0-68.728,0-103.222
		C312.467,7.157,159.808,7.157,6.959,7.157z"/>
	<g>
		<linearGradient id="SVGID_2_" gradientUnits="userSpaceOnUse" x1="62.2568" y1="58.8628" x2="449.637" y2="58.8628">
			<stop  offset="0" style="stop-color:#4ABCD0"/>
			<stop  offset="1" style="stop-color:#4F5CA2"/>
		</linearGradient>
		<path fill-rule="evenodd" clip-rule="evenodd" fill="url(#SVGID_2_)" d="M323.287,63.019c3.795,6.065,7.377,11.788,11.055,17.668
			c-9.689,2.093-10.486,1.743-14.953-6.128c-1.395-2.459-2.578-5.09-4.303-7.291c-1.086-1.383-3.002-2.113-5.748-3.935
			c0,7.03,0,12.29,0,17.843c-3.465,0-6.387,0-9.861,0c-0.133-1.719-0.377-3.471-0.381-5.225
			c-0.035-11.648,0.123-23.301-0.094-34.945c-0.074-3.994,1.295-5.344,5.189-5.011c4.957,0.423,9.963,0.298,14.916,0.744
			c6.066,0.547,10.904,3.02,12.488,9.548c1.572,6.473-0.355,10.957-6.496,15.287C324.568,61.949,324.08,62.385,323.287,63.019z
			 M309.354,44.153c0,2.527-0.004,4.816,0.002,7.104c0.004,0.989-0.121,2.011,0.082,2.959c0.189,0.876,0.514,2.031,1.17,2.448
			c3.516,2.24,9.865-0.635,10.75-4.744C322.727,45.554,318.488,42.583,309.354,44.153z"/>
		<linearGradient id="SVGID_3_" gradientUnits="userSpaceOnUse" x1="62.2554" y1="58.7705" x2="449.636" y2="58.7705">
			<stop  offset="0" style="stop-color:#4ABCD0"/>
			<stop  offset="1" style="stop-color:#4F5CA2"/>
		</linearGradient>
		<path fill-rule="evenodd" clip-rule="evenodd" fill="url(#SVGID_3_)" d="M256.295,59.457c0.855-4.4,1.254-8.407,2.443-12.163
			c2.51-7.913,8.57-12.25,16.301-12.23c7.852,0.021,13.76,4.285,16.305,12.213c2.615,8.143,2.766,16.344-0.561,24.383
			c-2.912,7.039-8.465,10.79-15.807,10.816c-7.326,0.025-13.068-3.668-15.707-10.832C257.799,67.656,257.213,63.344,256.295,59.457z
			 M266.893,59.26c0.613,3.572,0.654,7.578,2.125,10.966c0.902,2.08,4.006,4.45,6.092,4.421c2.084-0.029,5.752-2.738,5.91-4.523
			c0.666-7.5,0.668-15.13-0.002-22.63c-0.164-1.823-3.9-4.743-5.834-4.62c-2.275,0.146-5.365,2.628-6.318,4.86
			C267.416,51.124,267.506,55.17,266.893,59.26z"/>
		<linearGradient id="SVGID_4_" gradientUnits="userSpaceOnUse" x1="62.25" y1="59.0615" x2="449.6408" y2="59.0615">
			<stop  offset="0" style="stop-color:#4ABCD0"/>
			<stop  offset="1" style="stop-color:#4F5CA2"/>
		</linearGradient>
		<path fill-rule="evenodd" clip-rule="evenodd" fill="url(#SVGID_4_)" d="M136.547,81.486c-2.09,0-3.26-0.14-4.386,0.024
			c-4.624,0.675-7.702-0.567-7.96-5.86c-0.162-3.313-2.035-4.566-5.306-4.191c-3.252,0.373-7.306-0.569-9.568,1.063
			c-2.034,1.467-2.114,5.643-3.1,8.766c-3.236,0-6.348,0-10.014,0c0.451-1.857,0.742-3.432,1.215-4.948
			c3.707-11.892,7.561-23.739,11.101-35.68c0.916-3.089,2.301-4.216,5.527-4.214c8.395,0.003,8.384-0.14,10.853,7.784
			C128.704,56.406,132.514,68.579,136.547,81.486z M121.423,64.725c-1.647-6.755-3.177-13.025-4.707-19.295
			c-0.465-0.002-0.931-0.002-1.396-0.004c-1.499,6.284-2.997,12.567-4.602,19.299C114.56,64.725,117.595,64.725,121.423,64.725z"/>
		<linearGradient id="SVGID_5_" gradientUnits="userSpaceOnUse" x1="62.25" y1="59" x2="449.6408" y2="59">
			<stop  offset="0" style="stop-color:#4ABCD0"/>
			<stop  offset="1" style="stop-color:#4F5CA2"/>
		</linearGradient>
		<path fill-rule="evenodd" clip-rule="evenodd" fill="url(#SVGID_5_)" d="M175.342,80.709c1.766-5.383,3.575-10.688,5.246-16.037
			c2.577-8.254,5.198-16.5,7.514-24.829c0.917-3.295,3.106-3.732,5.664-3.259c3.069,0.567,7.35-2.27,8.951,2.802
			c4.204,13.316,8.355,26.648,12.503,39.982c0.138,0.444,0.018,0.97,0.018,2.117c-1.854,0-3.637-0.189-5.365,0.04
			c-3.615,0.479-5.798-0.78-5.986-4.565c-0.24-4.82-2.926-6.128-7.285-5.511c-1.631,0.231-3.467-0.368-4.946,0.155
			c-1.556,0.55-3.563,1.719-4.048,3.087C184.9,82.322,184.548,82.635,175.342,80.709z M200.735,64.776
			c-1.642-6.842-3.129-13.038-4.617-19.235c-0.484,0.011-0.969,0.022-1.453,0.033c-1.512,6.244-3.024,12.487-4.651,19.202
			C193.937,64.776,196.868,64.776,200.735,64.776z"/>
		<linearGradient id="SVGID_6_" gradientUnits="userSpaceOnUse" x1="62.2417" y1="59.0703" x2="449.642" y2="59.0703">
			<stop  offset="0" style="stop-color:#4ABCD0"/>
			<stop  offset="1" style="stop-color:#4F5CA2"/>
		</linearGradient>
		<path fill-rule="evenodd" clip-rule="evenodd" fill="url(#SVGID_6_)" d="M414.619,81.264c-2.037,0.092-3.535,0.024-4.986,0.248
			c-4.184,0.645-6.623-0.83-6.936-5.266c-0.254-3.605-2.014-5.317-5.836-4.809c-2.125,0.283-4.4-0.3-6.453,0.18
			c-1.426,0.333-3.283,1.551-3.752,2.816c-2.889,7.789-2.775,7.832-12.059,6.526c0.436-1.756,0.771-3.485,1.293-5.157
			c3.66-11.745,7.607-23.408,10.92-35.25c1.332-4.761,4.482-4.021,7.699-4.024c3.219-0.002,6.398-0.753,7.736,3.987
			c3.385,11.996,7.355,23.824,11.066,35.726C413.791,77.777,414.127,79.355,414.619,81.264z M399.725,64.674
			c-1.654-6.853-3.143-13.03-4.633-19.208c-0.479,0.031-0.955,0.063-1.432,0.094c-1.508,6.202-3.018,12.403-4.65,19.114
			C392.781,64.674,395.85,64.674,399.725,64.674z"/>
		<linearGradient id="SVGID_7_" gradientUnits="userSpaceOnUse" x1="62.2603" y1="58.834" x2="449.6377" y2="58.834">
			<stop  offset="0" style="stop-color:#4ABCD0"/>
			<stop  offset="1" style="stop-color:#4F5CA2"/>
		</linearGradient>
		<path fill-rule="evenodd" clip-rule="evenodd" fill="url(#SVGID_7_)" d="M369.496,36.493c0.188,6.983,0.188,6.985-6.199,6.993
			c-3.811,0.004-7.623,0-12.428,0c0,3.209-0.242,6.127,0.133,8.962c0.129,0.962,1.73,2.285,2.811,2.452
			c2.439,0.377,4.973,0.135,7.469,0.145c6.238,0.024,6.695,0.667,4.875,7.529c-4.785,0-9.707,0-14.635,0
			c-0.299,1.072-0.57,1.688-0.635,2.326c-0.9,8.994-0.758,9.143,8.314,9.145c1.664,0,3.328-0.004,4.99,0
			c6.492,0.016,6.686,0.258,5.389,7.13c-8.998,0-18.061,0-27.518,0c0-14.798,0-29.514,0-44.682
			C351.063,36.493,360.1,36.493,369.496,36.493z"/>
		<linearGradient id="SVGID_8_" gradientUnits="userSpaceOnUse" x1="62.25" y1="59.1089" x2="449.6408" y2="59.1089">
			<stop  offset="0" style="stop-color:#4ABCD0"/>
			<stop  offset="1" style="stop-color:#4F5CA2"/>
		</linearGradient>
		<path fill-rule="evenodd" clip-rule="evenodd" fill="url(#SVGID_8_)" d="M174.825,37.476c-2.708,9.388-5.398,18.773-8.128,28.147
			c-0.743,2.55-1.664,5.049-2.404,7.6c-2.608,8.989-3.285,9.488-12.771,8.178c-1.049-0.145-2.601-1.104-2.843-1.982
			c-3.869-14.031-7.562-28.109-11.301-42.201c8.788-1.713,9.178-1.456,10.958,6.25c1.983,8.584,4.006,17.161,6.052,25.729
			c0.209,0.875,0.688,1.684,2.138,2.543c2.215-9.458,4.444-18.913,6.642-28.375C164.938,35.74,165.967,35.161,174.825,37.476z"/>
		<linearGradient id="SVGID_9_" gradientUnits="userSpaceOnUse" x1="62.25" y1="59.334" x2="449.6408" y2="59.334">
			<stop  offset="0" style="stop-color:#4ABCD0"/>
			<stop  offset="1" style="stop-color:#4F5CA2"/>
		</linearGradient>
		<path fill-rule="evenodd" clip-rule="evenodd" fill="url(#SVGID_9_)" d="M59.032,78.473c1.413-2.215,2.466-3.867,3.388-5.313
			c3.279,0.674,6.148,1.622,9.06,1.781c5.107,0.279,8.572-2.36,8.862-7.43c0.444-7.758,0.117-15.559,0.117-23.903
			c-4.639,0-8.889,0-13.5,0c0-2.633,0-4.7,0-7.507c7.165,0,14.272-0.102,21.367,0.136c0.837,0.028,2.296,1.916,2.309,2.956
			c0.119,9.495,0.506,19.032-0.213,28.478C89.495,79.84,76.583,85.886,63.595,80.754C62.234,80.216,60.965,79.447,59.032,78.473z"/>
		<linearGradient id="SVGID_10_" gradientUnits="userSpaceOnUse" x1="62.25" y1="58.7285" x2="449.6408" y2="58.7285">
			<stop  offset="0" style="stop-color:#4ABCD0"/>
			<stop  offset="1" style="stop-color:#4F5CA2"/>
		</linearGradient>
		<path fill-rule="evenodd" clip-rule="evenodd" fill="url(#SVGID_10_)" d="M229.956,81.233c-3.333,0-6.27,0-9.616,0
			c0-14.933,0-29.793,0-45.009c3.154,0,6.19,0,9.616,0C229.956,51.26,229.956,66.121,229.956,81.233z"/>
		<linearGradient id="SVGID_11_" gradientUnits="userSpaceOnUse" x1="62.2461" y1="58.7432" x2="449.6455" y2="58.7432">
			<stop  offset="0" style="stop-color:#4ABCD0"/>
			<stop  offset="1" style="stop-color:#4F5CA2"/>
		</linearGradient>
		<path fill-rule="evenodd" clip-rule="evenodd" fill="url(#SVGID_11_)" d="M254.592,81.076c-1.365,0.23-1.846,0.307-2.326,0.394
			c-6.002,1.085-9.791-0.946-12.025-7.005c-1.758-4.771-5.107-8.936-7.198-13.617c-0.779-1.743-0.618-4.479,0.207-6.254
			c2.025-4.355,5.161-8.221,6.975-12.642c2.455-5.983,6.508-7.224,12.811-5.501c-2.57,4.196-5.152,8.193-7.516,12.317
			c-4.588,8.012-4.537,9.11,0.73,18.025C248.939,71.344,251.584,75.922,254.592,81.076z"/>
	</g>
</g>
</svg>
