<?xml version="1.0" encoding="utf-8"?>
<!-- Generator: Adobe Illustrator 16.0.0, SVG Export Plug-In . SVG Version: 6.00 Build 0)  -->
<!DOCTYPE svg PUBLIC "-//W3C//DTD SVG 1.1//EN" "http://www.w3.org/Graphics/SVG/1.1/DTD/svg11.dtd">
<svg version="1.1" id="Layer_1" xmlns="http://www.w3.org/2000/svg" xmlns:xlink="http://www.w3.org/1999/xlink" x="0px" y="0px"
	 width="136px" height="43px" viewBox="0 0 136 43" enable-background="new 0 0 136 43" xml:space="preserve">
<linearGradient id="SVGID_1_" gradientUnits="userSpaceOnUse" x1="0.5298" y1="21.5" x2="135.4707" y2="21.5">
	<stop  offset="0" style="stop-color:#48BCCF"/>
	<stop  offset="1" style="stop-color:#4E5AA1"/>
</linearGradient>
<path fill="url(#SVGID_1_)" d="M135.458,38.948c0-0.006,0.002-0.01,0.002-0.014l0.004,0.002c0-0.006-0.004-0.012-0.004-0.02
	s0.002-0.014,0.002-0.021c-0.053-1.031-0.533-1.934-1.256-2.561c-0.684-0.707-1.457-1.141-1.869-1.342
	c0.803-1.728,1.264-3.647,1.264-5.679c0-7.456-6.043-13.5-13.5-13.5c-7.456,0-13.5,6.044-13.5,13.5
	c0,7.456,6.044,13.499,13.5,13.499c2.922,0,5.619-0.938,7.828-2.514c0.291,0.414,0.744,0.971,1.361,1.447
	c0.699,0.695,1.668,1.115,2.732,1.063c2.002-0.1,3.543-1.803,3.443-3.805C135.466,38.985,135.46,38.966,135.458,38.948z
	 M120.101,36.126c-3.763,0-6.813-3.048-6.813-6.812c0-3.762,3.05-6.813,6.813-6.813c3.764,0,6.813,3.051,6.813,6.813
	C126.913,33.078,123.864,36.126,120.101,36.126z M68.183,15.816c-7.456,0-13.5,6.043-13.5,13.499c0,7.458,6.044,13.501,13.5,13.501
	s13.5-6.043,13.5-13.501C81.683,21.859,75.639,15.816,68.183,15.816z M68.183,36.128c-3.763,0-6.813-3.05-6.813-6.813
	c0-3.762,3.05-6.811,6.813-6.811s6.813,3.049,6.813,6.811C74.995,33.078,71.945,36.128,68.183,36.128z M106.832,38.124
	c-0.197,0.768-0.661,1.396-1.259,1.844c-0.021,0.016-0.043,0.027-0.063,0.043c-0.093,0.068-0.183,0.137-0.282,0.195
	c-0.001,0-0.003,0.002-0.004,0.002c-0.075,0.049-0.146,0.105-0.226,0.148c-0.081,0.053-0.158,0.109-0.242,0.154
	c-0.004,0.002-0.007,0.002-0.011,0.006c-0.078,0.045-0.152,0.1-0.233,0.139c-0.083,0.049-0.163,0.105-0.251,0.145
	c-0.084,0.047-0.165,0.1-0.253,0.141c-0.086,0.045-0.166,0.096-0.256,0.135c-0.087,0.043-0.169,0.094-0.258,0.131
	c-0.011,0.006-0.022,0.01-0.033,0.016c-0.076,0.035-0.15,0.08-0.229,0.111c-0.091,0.041-0.178,0.09-0.271,0.125
	c-0.003,0-0.005,0.002-0.008,0.002c-0.088,0.037-0.171,0.084-0.263,0.115c-0.092,0.039-0.182,0.084-0.277,0.115
	c-0.004,0.002-0.009,0.002-0.012,0.004c-0.087,0.033-0.169,0.076-0.259,0.104c-0.01,0.006-0.022,0.008-0.034,0.014
	c-0.083,0.029-0.163,0.068-0.248,0.092c-0.097,0.035-0.189,0.076-0.288,0.102c-0.003,0.002-0.007,0.002-0.011,0.004
	c-0.091,0.029-0.179,0.068-0.271,0.092c-0.008,0.002-0.016,0.004-0.023,0.008c-0.089,0.027-0.174,0.061-0.264,0.082
	c-0.015,0.006-0.03,0.008-0.044,0.014c-0.085,0.023-0.167,0.057-0.253,0.072c-0.1,0.027-0.196,0.063-0.298,0.08
	c-0.01,0.006-0.021,0.006-0.031,0.01c-0.088,0.021-0.174,0.051-0.265,0.064c-0.005,0.002-0.01,0.002-0.014,0.004
	c-0.094,0.021-0.186,0.051-0.282,0.064c-0.021,0.006-0.045,0.01-0.065,0.014c-0.079,0.016-0.155,0.039-0.234,0.049
	c-0.019,0.006-0.037,0.006-0.056,0.01c-0.086,0.016-0.169,0.039-0.257,0.047c-0.008,0.002-0.015,0.004-0.021,0.004
	c-0.096,0.016-0.19,0.039-0.287,0.047c-0.018,0.004-0.035,0.004-0.053,0.008c-0.084,0.01-0.169,0.029-0.254,0.035
	c-0.02,0.004-0.041,0.004-0.06,0.006c-0.085,0.01-0.169,0.027-0.254,0.029c-0.017,0.004-0.034,0.002-0.05,0.004
	c-0.09,0.008-0.178,0.023-0.267,0.025c-0.022,0.004-0.046,0.002-0.068,0.004c-0.083,0.004-0.164,0.018-0.248,0.016
	c-0.021,0.004-0.042,0-0.063,0.002c-0.087,0.004-0.173,0.014-0.259,0.012c-0.019,0-0.036-0.002-0.056-0.002
	c-0.089,0.002-0.178,0.012-0.268,0.004c-0.008,0-0.015,0-0.022,0c-0.099-0.002-0.198,0.008-0.296-0.002
	c-0.023,0-0.047-0.002-0.07-0.002c-0.083-0.004-0.165,0.002-0.247-0.008c-0.018,0-0.036-0.002-0.055-0.002
	c-0.088-0.006-0.176-0.002-0.263-0.014c-0.025,0-0.05-0.006-0.075-0.006c-0.082-0.008-0.164-0.006-0.246-0.02
	c-0.009,0-0.018-0.002-0.026-0.004c-0.096-0.008-0.192-0.01-0.289-0.027c-0.023,0-0.045-0.006-0.068-0.008
	c-0.08-0.01-0.161-0.014-0.239-0.029c-0.02,0-0.037-0.006-0.057-0.008c-0.089-0.012-0.177-0.02-0.264-0.039
	c-0.003,0-0.006,0-0.008,0c-0.101-0.018-0.201-0.025-0.299-0.049c-0.023-0.002-0.046-0.012-0.068-0.014
	c-0.08-0.016-0.159-0.023-0.237-0.047c-0.008,0.002-0.014-0.002-0.021-0.004c-0.094-0.02-0.19-0.031-0.282-0.059
	c-0.026-0.004-0.05-0.014-0.076-0.018c-0.074-0.02-0.15-0.029-0.224-0.055c-0.009-0.002-0.017-0.004-0.026-0.004
	c-0.093-0.027-0.188-0.043-0.281-0.074c-0.007-0.002-0.014-0.006-0.021-0.008c-0.093-0.025-0.188-0.045-0.276-0.076
	c-0.004-0.002-0.008-0.004-0.013-0.006c-0.092-0.027-0.188-0.047-0.277-0.084c-0.018-0.006-0.033-0.012-0.052-0.018
	c-0.078-0.027-0.159-0.045-0.235-0.078c-0.015-0.004-0.03-0.012-0.044-0.016c-0.083-0.029-0.168-0.051-0.247-0.088
	c-0.013-0.002-0.024-0.01-0.037-0.014c-0.083-0.033-0.17-0.059-0.252-0.098c-0.003,0-0.005-0.002-0.008-0.004
	c-0.091-0.035-0.185-0.064-0.271-0.109c-0.019-0.004-0.034-0.016-0.051-0.021c-0.075-0.033-0.154-0.059-0.228-0.098
	c-0.005-0.002-0.009-0.004-0.014-0.006c-0.087-0.041-0.178-0.072-0.262-0.121c-0.016-0.006-0.029-0.016-0.045-0.021
	c-0.077-0.037-0.156-0.066-0.228-0.109c-0.005-0.002-0.01-0.006-0.014-0.008c-0.087-0.045-0.177-0.082-0.259-0.131
	c-0.006-0.004-0.01-0.008-0.016-0.01c-0.082-0.045-0.168-0.082-0.246-0.133c-0.014-0.006-0.024-0.014-0.037-0.021
	c-0.074-0.043-0.152-0.076-0.224-0.125c-0.009-0.006-0.018-0.012-0.026-0.018c-0.077-0.045-0.158-0.086-0.233-0.139
	c-0.008-0.004-0.016-0.01-0.023-0.014c-0.078-0.051-0.159-0.092-0.232-0.146c-0.083-0.057-0.171-0.102-0.249-0.164
	c-0.011-0.006-0.021-0.016-0.032-0.021c-0.07-0.051-0.146-0.094-0.212-0.146c-0.002-0.002-0.004-0.004-0.005-0.004
	c-0.079-0.057-0.163-0.109-0.237-0.17c-0.014-0.01-0.026-0.021-0.04-0.031c-0.065-0.049-0.136-0.094-0.197-0.148
	c-0.078-0.061-0.163-0.117-0.235-0.188c-0.011-0.006-0.021-0.016-0.03-0.023c-0.064-0.055-0.136-0.102-0.196-0.162
	c-0.005-0.004-0.011-0.01-0.015-0.014c-0.071-0.059-0.147-0.115-0.212-0.18c-0.012-0.01-0.021-0.021-0.033-0.031
	c-0.062-0.057-0.129-0.107-0.188-0.168c-0.003-0.002-0.005-0.004-0.007-0.006c-0.071-0.068-0.147-0.127-0.211-0.199
	c-0.005-0.006-0.009-0.01-0.014-0.014c-0.065-0.064-0.138-0.121-0.196-0.191c-0.01-0.01-0.02-0.021-0.03-0.031
	c-0.059-0.061-0.123-0.117-0.179-0.184c-0.066-0.072-0.142-0.139-0.202-0.217c-0.013-0.012-0.021-0.025-0.032-0.037
	c-0.054-0.061-0.114-0.115-0.164-0.182c-0.004-0.004-0.006-0.008-0.01-0.012c-0.061-0.072-0.127-0.137-0.184-0.211
	c-0.013-0.016-0.024-0.033-0.036-0.047c-0.05-0.063-0.105-0.119-0.15-0.184c-0.063-0.08-0.13-0.152-0.185-0.234
	c-0.01-0.012-0.017-0.023-0.024-0.035c-0.051-0.068-0.107-0.131-0.152-0.203c-0.002-0.002-0.003-0.004-0.004-0.004
	c-0.058-0.08-0.12-0.154-0.169-0.238c-0.006-0.008-0.013-0.018-0.018-0.025c-0.049-0.072-0.105-0.141-0.148-0.219
	c-0.006-0.008-0.012-0.018-0.018-0.025c-0.048-0.076-0.104-0.146-0.146-0.225c-0.001-0.002-0.002-0.004-0.004-0.006
	c-0.051-0.082-0.108-0.16-0.153-0.248c-0.006-0.01-0.01-0.02-0.017-0.027c-0.043-0.074-0.093-0.146-0.13-0.223
	c-0.011-0.016-0.018-0.031-0.027-0.047c-0.039-0.072-0.085-0.141-0.118-0.215c-0.007-0.008-0.011-0.02-0.016-0.027
	c-0.043-0.08-0.092-0.156-0.127-0.238c-0.006-0.01-0.009-0.02-0.015-0.029c-0.039-0.08-0.086-0.156-0.12-0.238
	c-0.003-0.008-0.006-0.016-0.01-0.023c-0.039-0.082-0.084-0.16-0.117-0.246c-0.006-0.012-0.009-0.021-0.015-0.031
	c-0.035-0.082-0.078-0.157-0.108-0.241c-0.004-0.012-0.009-0.023-0.013-0.035c-0.034-0.08-0.075-0.158-0.102-0.242
	c-0.006-0.01-0.009-0.021-0.014-0.031c-0.032-0.084-0.071-0.164-0.098-0.25c-0.003-0.008-0.006-0.018-0.009-0.027
	c-0.032-0.084-0.07-0.164-0.094-0.254c-0.007-0.014-0.009-0.027-0.015-0.043c-0.026-0.08-0.063-0.16-0.084-0.244
	c-0.003-0.01-0.005-0.018-0.009-0.027c-0.027-0.088-0.063-0.172-0.082-0.262c-0.005-0.01-0.005-0.021-0.009-0.031
	c-0.024-0.086-0.058-0.17-0.076-0.26c-0.004-0.012-0.005-0.025-0.009-0.035c-0.022-0.086-0.053-0.168-0.068-0.254
	c-0.006-0.02-0.009-0.039-0.013-0.057c-0.019-0.08-0.046-0.156-0.059-0.238c-0.006-0.018-0.007-0.037-0.013-0.053
	c-0.016-0.084-0.042-0.166-0.053-0.25c-0.004-0.016-0.005-0.031-0.009-0.045c-0.016-0.084-0.04-0.168-0.049-0.254
	c-0.004-0.018-0.005-0.037-0.009-0.057c-0.014-0.084-0.036-0.164-0.043-0.248c-0.003-0.014-0.003-0.031-0.006-0.047
	c-0.013-0.086-0.033-0.172-0.038-0.26c-0.003-0.016-0.003-0.031-0.005-0.047c-0.012-0.086-0.03-0.172-0.033-0.26
	c-0.002-0.018-0.001-0.033-0.003-0.049c-0.009-0.088-0.026-0.174-0.027-0.26c-0.002-0.02-0.001-0.039-0.004-0.059
	c-0.004-0.084-0.02-0.166-0.019-0.252c-0.001-0.018,0-0.033-0.001-0.051c-0.004-0.088-0.018-0.176-0.014-0.264
	c-0.003-0.018,0-0.035-0.002-0.051c-0.001-0.088-0.012-0.174-0.007-0.26c-0.003-0.023,0.001-0.047,0-0.07
	c0.001-0.082-0.008-0.164-0.001-0.244c-0.001-0.023,0.002-0.043,0.001-0.064c0.004-0.084-0.003-0.166,0.005-0.248
	c0-0.021,0.003-0.043,0.003-0.064c0.004-0.086,0.002-0.17,0.012-0.254c0-0.012,0.001-0.021,0.002-0.031
	c0.007-0.094,0.005-0.188,0.019-0.279c0-0.02,0.006-0.041,0.006-0.061c0.009-0.08,0.009-0.164,0.023-0.246
	c0-0.016,0.005-0.031,0.005-0.049c0.011-0.086,0.013-0.172,0.029-0.258c0.001-0.02,0.008-0.039,0.009-0.059
	c0.011-0.082,0.016-0.166,0.034-0.246c0.002-0.014,0.006-0.027,0.008-0.039c0.014-0.092,0.021-0.182,0.043-0.27
	c0.001-0.01,0.004-0.02,0.005-0.029c0.018-0.09,0.025-0.18,0.05-0.27c0.003-0.018,0.01-0.035,0.012-0.055
	c0.019-0.08,0.026-0.162,0.052-0.242c0.002-0.014,0.008-0.029,0.01-0.043c0.021-0.084,0.031-0.168,0.058-0.252
	c0.005-0.021,0.014-0.041,0.018-0.064c0.021-0.078,0.036-0.158,0.062-0.234c0-0.002,0.001-0.002,0.001-0.004
	c0.027-0.096,0.048-0.195,0.083-0.291c0.003-0.012,0.009-0.025,0.012-0.039c0.027-0.08,0.044-0.164,0.076-0.242
	c0.004-0.018,0.013-0.033,0.017-0.051c0.026-0.078,0.046-0.16,0.078-0.234c0.005-0.016,0.012-0.031,0.016-0.045
	c0.029-0.082,0.053-0.166,0.09-0.246C84,24.709,84,24.707,84,24.705c0.036-0.092,0.063-0.188,0.106-0.273
	c0.004-0.016,0.012-0.027,0.018-0.043c0.032-0.076,0.057-0.158,0.096-0.232c0.003-0.01,0.008-0.018,0.012-0.027
	c0.037-0.082,0.065-0.168,0.107-0.246c0.007-0.018,0.016-0.031,0.023-0.049c0.034-0.074,0.063-0.15,0.104-0.223
	c0.004-0.008,0.009-0.016,0.013-0.023c0.04-0.084,0.074-0.172,0.124-0.25c0.045-0.088,0.082-0.178,0.135-0.262
	c0.009-0.016,0.02-0.031,0.027-0.047c0.039-0.07,0.071-0.145,0.114-0.211c0.005-0.01,0.012-0.018,0.018-0.029
	c0.044-0.076,0.083-0.156,0.134-0.23c0.005-0.008,0.012-0.018,0.017-0.025c0.046-0.076,0.087-0.156,0.14-0.23
	c0.002-0.002,0.004-0.006,0.006-0.008c0.052-0.082,0.097-0.166,0.154-0.242c0.005-0.008,0.011-0.014,0.014-0.021
	c0.052-0.075,0.095-0.155,0.151-0.225c0.005-0.006,0.011-0.012,0.015-0.02c0.052-0.072,0.097-0.151,0.153-0.219
	c0.011-0.016,0.023-0.03,0.035-0.047c0.048-0.066,0.091-0.135,0.144-0.195c0.062-0.079,0.115-0.163,0.183-0.235
	c0.01-0.015,0.02-0.024,0.028-0.036c0.053-0.063,0.098-0.131,0.153-0.19c0.009-0.013,0.021-0.023,0.031-0.037
	c0.056-0.064,0.104-0.134,0.164-0.193c0.065-0.075,0.124-0.153,0.193-0.222c0.015-0.018,0.03-0.03,0.046-0.049
	c0.053-0.055,0.1-0.117,0.156-0.17c0.07-0.072,0.133-0.15,0.209-0.217c0.008-0.009,0.019-0.018,0.026-0.027
	c0.062-0.058,0.113-0.123,0.179-0.178c0.009-0.011,0.021-0.019,0.03-0.029c0.063-0.059,0.12-0.123,0.187-0.178
	c0.005-0.004,0.011-0.008,0.016-0.014c0.069-0.063,0.132-0.131,0.207-0.189c0.002-0.002,0.006-0.004,0.009-0.008
	c0.071-0.062,0.138-0.129,0.213-0.186c0.009-0.008,0.019-0.015,0.026-0.022c0.068-0.056,0.128-0.118,0.199-0.167
	c0.012-0.01,0.024-0.019,0.035-0.029c0.067-0.053,0.129-0.111,0.199-0.159c0.004-0.003,0.009-0.007,0.013-0.009
	c0.075-0.059,0.146-0.123,0.226-0.174c0.006-0.006,0.014-0.01,0.02-0.014c0.074-0.055,0.145-0.115,0.226-0.164
	c0.08-0.057,0.155-0.119,0.239-0.169c0.016-0.013,0.033-0.021,0.048-0.032c0.067-0.044,0.13-0.096,0.2-0.134
	c0.008-0.005,0.017-0.009,0.024-0.016c0.078-0.048,0.151-0.106,0.234-0.148c0.002-0.002,0.006-0.003,0.008-0.005
	c0.083-0.051,0.162-0.108,0.249-0.152c0.004-0.002,0.008-0.003,0.012-0.006c0.081-0.047,0.158-0.102,0.244-0.143
	c0.018-0.01,0.037-0.018,0.054-0.029c0.07-0.037,0.137-0.082,0.21-0.114c0.008-0.007,0.017-0.009,0.024-0.014
	c0.083-0.043,0.161-0.093,0.247-0.128c0.01-0.006,0.021-0.01,0.03-0.016c0.079-0.039,0.157-0.086,0.241-0.119
	c0.006-0.004,0.012-0.005,0.018-0.008c0.086-0.041,0.168-0.088,0.258-0.121c0.012-0.007,0.025-0.012,0.038-0.018
	c0.079-0.033,0.154-0.076,0.235-0.104c0.018-0.009,0.037-0.014,0.054-0.023c0.078-0.031,0.153-0.07,0.232-0.096h0.002
	c0.097-0.038,0.189-0.083,0.288-0.112c0.007-0.003,0.014-0.005,0.021-0.007c0.087-0.032,0.17-0.072,0.26-0.097
	c0.021-0.009,0.042-0.013,0.063-0.021c0.074-0.024,0.147-0.058,0.225-0.076c0.015-0.007,0.031-0.009,0.046-0.016
	c0.084-0.025,0.166-0.06,0.253-0.079c0.011-0.004,0.024-0.006,0.036-0.011c0.087-0.024,0.173-0.058,0.262-0.077
	c0.012-0.003,0.023-0.004,0.035-0.008c0.089-0.023,0.175-0.055,0.265-0.072c0.012-0.003,0.023-0.004,0.035-0.008
	c0.088-0.021,0.173-0.051,0.26-0.064c0.026-0.009,0.055-0.012,0.082-0.018c0.074-0.016,0.148-0.039,0.224-0.049
	c0.012-0.004,0.024-0.006,0.036-0.008c0.092-0.019,0.184-0.045,0.277-0.056c0.015-0.003,0.028-0.003,0.043-0.007
	c0.088-0.014,0.174-0.039,0.262-0.047c0.021-0.004,0.045-0.005,0.065-0.01c0.082-0.012,0.162-0.031,0.243-0.037
	c0.021-0.004,0.045-0.004,0.067-0.009c0.085-0.011,0.168-0.028,0.253-0.032c0.011-0.002,0.021-0.001,0.03-0.004
	c0.095-0.01,0.188-0.028,0.282-0.029c0.028-0.006,0.057-0.004,0.084-0.008c0.078-0.006,0.154-0.02,0.232-0.02
	c0.016-0.002,0.029-0.001,0.043-0.004c0.093-0.004,0.187-0.019,0.28-0.016c0.02-0.003,0.041,0,0.062-0.002
	c0.085-0.003,0.17-0.016,0.255-0.011c0.025-0.003,0.051-0.001,0.076-0.002c0.084,0,0.166-0.01,0.248-0.004
	c0.021-0.002,0.042,0.001,0.063,0.001c0.087,0.001,0.174-0.008,0.26,0c0.019,0,0.037,0.003,0.057,0.002
	c0.089,0.004,0.178-0.002,0.267,0.008c0.01,0,0.019,0.002,0.027,0.002c0.096,0.004,0.191,0.001,0.285,0.014
	c0.029-0.001,0.059,0.006,0.087,0.006c0.078,0.008,0.155,0.006,0.23,0.018c0.008,0,0.016,0.002,0.024,0.002
	c0.098,0.009,0.195,0.011,0.291,0.027c0.026,0,0.053,0.008,0.079,0.01c0.076,0.011,0.154,0.012,0.23,0.027
	c0.017,0,0.032,0.006,0.049,0.006c0.088,0.014,0.179,0.018,0.265,0.037c0.015,0.002,0.028,0.006,0.042,0.008
	c0.09,0.017,0.182,0.021,0.27,0.043c0.013,0.002,0.024,0.007,0.037,0.008c0.089,0.018,0.178,0.023,0.264,0.049
	c0.024,0.003,0.047,0.012,0.07,0.015c0.079,0.019,0.159,0.028,0.237,0.05c0.006,0.002,0.012,0.004,0.018,0.005
	c0.096,0.021,0.193,0.036,0.286,0.066c0.015,0.003,0.028,0.008,0.043,0.011c0.085,0.021,0.171,0.035,0.254,0.064
	c0.01,0.003,0.021,0.006,0.032,0.008c0.086,0.025,0.177,0.043,0.262,0.073c0.023,0.005,0.046,0.015,0.068,0.021
	c0.075,0.025,0.151,0.04,0.225,0.068c0.011,0.004,0.021,0.008,0.031,0.012c0.089,0.029,0.18,0.051,0.266,0.086
	c0.006,0.002,0.011,0.006,0.017,0.008c0.091,0.029,0.184,0.055,0.271,0.094c0.013,0.004,0.025,0.011,0.038,0.014
	c0.08,0.031,0.164,0.055,0.242,0.091c0.016,0.005,0.03,0.014,0.047,0.019c0.077,0.033,0.159,0.058,0.234,0.095
	c0.011,0.005,0.022,0.011,0.033,0.016c0.085,0.036,0.172,0.064,0.252,0.106c0.092,0.042,0.187,0.076,0.274,0.125
	c0.019,0.007,0.035,0.02,0.055,0.025c0.069,0.035,0.143,0.063,0.21,0.101c0.017,0.007,0.03,0.017,0.048,0.024
	c0.074,0.038,0.152,0.07,0.225,0.115c0.007,0.002,0.014,0.007,0.021,0.01c0.082,0.045,0.168,0.081,0.246,0.131
	c0.013,0.006,0.023,0.015,0.034,0.02c0.075,0.043,0.155,0.08,0.227,0.128c0.005,0.003,0.009,0.005,0.015,0.007
	c0.081,0.051,0.167,0.09,0.243,0.145c0.013,0.008,0.022,0.015,0.035,0.021c0.073,0.047,0.15,0.086,0.22,0.138
	c0.003,0.002,0.006,0.004,0.008,0.005c0.081,0.053,0.166,0.099,0.242,0.158c0.012,0.008,0.023,0.017,0.037,0.023
	c0.07,0.049,0.145,0.092,0.21,0.145c0.081,0.057,0.165,0.109,0.241,0.172c0.016,0.01,0.027,0.021,0.042,0.031
	c0.064,0.051,0.136,0.092,0.195,0.146c0.76,0.59,1.27,1.477,1.306,2.5c0.063,1.852-1.422,3.409-3.319,3.475
	c-0.882,0.029-1.691-0.275-2.318-0.789c-0.035-0.025-0.069-0.047-0.103-0.072c-0.049-0.033-0.098-0.064-0.146-0.102
	c-0.041-0.025-0.086-0.053-0.127-0.082c-0.043-0.027-0.087-0.053-0.128-0.08c-0.042-0.025-0.085-0.047-0.124-0.074
	c-0.048-0.025-0.097-0.051-0.144-0.08c-0.034-0.02-0.07-0.035-0.104-0.057c-0.055-0.027-0.11-0.053-0.163-0.082
	c-0.044-0.021-0.087-0.039-0.129-0.063c-0.054-0.025-0.107-0.047-0.158-0.072c-0.038-0.018-0.076-0.031-0.113-0.049
	c-0.044-0.018-0.086-0.031-0.128-0.053c-0.058-0.021-0.115-0.039-0.172-0.064c-0.039-0.014-0.08-0.025-0.119-0.041
	c-0.059-0.02-0.119-0.037-0.176-0.059c-0.036-0.012-0.071-0.021-0.106-0.033c-0.057-0.016-0.114-0.029-0.17-0.049
	c-0.05-0.012-0.099-0.023-0.146-0.037c-0.058-0.014-0.114-0.023-0.172-0.041c-0.045-0.008-0.091-0.018-0.136-0.027
	c-0.051-0.01-0.103-0.018-0.152-0.029c-0.052-0.01-0.105-0.016-0.157-0.025c-0.054-0.008-0.106-0.014-0.16-0.023
	c-0.057-0.008-0.113-0.012-0.171-0.021c-0.037-0.004-0.074-0.006-0.11-0.01c-0.063-0.006-0.127-0.008-0.19-0.016
	c-0.05-0.004-0.099-0.004-0.146-0.008c-0.063-0.002-0.128,0-0.19-0.006c-0.038,0-0.076,0-0.115-0.002
	c-0.068,0.002-0.139,0.006-0.207,0.004c-0.041,0.002-0.082,0.002-0.124,0.004c-0.081,0.006-0.161,0.014-0.241,0.014
	c-0.021,0-0.043,0.004-0.064,0.006c-0.067,0.008-0.137,0.016-0.205,0.02c-0.062,0.01-0.123,0.018-0.184,0.025
	c-0.045,0.004-0.09,0.014-0.136,0.018c-0.058,0.012-0.115,0.023-0.174,0.031c-0.035,0.006-0.071,0.014-0.106,0.021
	c-0.076,0.016-0.151,0.035-0.228,0.049c-0.031,0.008-0.06,0.014-0.091,0.021c-0.06,0.016-0.118,0.033-0.178,0.047
	c-0.036,0.01-0.073,0.023-0.111,0.031c-0.071,0.023-0.143,0.051-0.216,0.068c-0.032,0.01-0.065,0.023-0.099,0.035
	c-0.058,0.02-0.115,0.045-0.176,0.063c-0.032,0.012-0.066,0.027-0.1,0.037c-0.064,0.029-0.128,0.057-0.193,0.08
	c-0.036,0.016-0.073,0.033-0.109,0.049c-0.055,0.025-0.108,0.053-0.163,0.076c-0.037,0.018-0.075,0.039-0.115,0.057
	c-0.04,0.021-0.078,0.041-0.118,0.061c-0.057,0.031-0.111,0.064-0.169,0.094c-0.042,0.023-0.081,0.047-0.123,0.068
	c-0.043,0.027-0.086,0.057-0.132,0.082c-0.029,0.018-0.058,0.037-0.088,0.055c-0.057,0.039-0.112,0.078-0.171,0.113
	c-0.041,0.029-0.08,0.059-0.123,0.084c-0.039,0.029-0.077,0.061-0.118,0.09c-0.04,0.027-0.077,0.061-0.117,0.088
	c-0.037,0.029-0.072,0.061-0.11,0.088c-0.038,0.031-0.076,0.066-0.116,0.098c-0.042,0.035-0.082,0.074-0.125,0.107
	c-0.036,0.033-0.069,0.066-0.107,0.1c-0.03,0.029-0.06,0.059-0.092,0.088c-0.042,0.041-0.083,0.086-0.128,0.125
	c-0.034,0.037-0.067,0.074-0.104,0.109c-0.031,0.031-0.061,0.066-0.093,0.1c-0.038,0.043-0.076,0.09-0.117,0.133
	c-0.026,0.029-0.05,0.061-0.076,0.09c-0.034,0.043-0.067,0.086-0.104,0.127c-0.032,0.043-0.064,0.088-0.1,0.129
	c-0.024,0.033-0.048,0.068-0.074,0.102c-0.03,0.043-0.058,0.084-0.089,0.125c-0.036,0.055-0.071,0.111-0.109,0.162
	c-0.016,0.025-0.03,0.049-0.048,0.074c-0.028,0.049-0.057,0.098-0.089,0.145c-0.022,0.039-0.044,0.08-0.068,0.117
	c-0.025,0.051-0.052,0.098-0.08,0.148c-0.029,0.051-0.054,0.105-0.084,0.158c-0.017,0.031-0.031,0.064-0.048,0.096
	c-0.018,0.039-0.034,0.074-0.053,0.109c-0.029,0.072-0.059,0.145-0.093,0.213c-0.015,0.033-0.026,0.068-0.041,0.1
	c-0.02,0.049-0.036,0.096-0.057,0.143c-0.019,0.051-0.034,0.105-0.057,0.156c-0.012,0.033-0.021,0.068-0.034,0.104
	c-0.02,0.063-0.038,0.129-0.061,0.193c-0.011,0.037-0.021,0.074-0.032,0.111c-0.014,0.049-0.023,0.098-0.04,0.146
	c-0.011,0.055-0.022,0.109-0.038,0.166c-0.011,0.045-0.019,0.094-0.031,0.141c-0.01,0.051-0.016,0.104-0.029,0.154
	c-0.007,0.047-0.014,0.096-0.023,0.141c-0.009,0.061-0.014,0.121-0.024,0.18c-0.006,0.039-0.009,0.076-0.016,0.115
	c-0.005,0.066-0.009,0.133-0.018,0.201c-0.003,0.037-0.004,0.074-0.008,0.109c-0.003,0.063-0.004,0.125-0.009,0.188
	c-0.002,0.053-0.001,0.104-0.005,0.156c-0.001,0.049,0.002,0.098,0.001,0.146c0,0.055,0.004,0.109,0.003,0.164
	c0.003,0.053,0.006,0.105,0.006,0.16c0.006,0.055,0.012,0.109,0.012,0.164c0.006,0.057,0.014,0.111,0.016,0.166
	c0.006,0.051,0.015,0.1,0.019,0.15c0.006,0.047,0.015,0.094,0.019,0.143c0.011,0.057,0.022,0.115,0.029,0.172
	c0.011,0.053,0.022,0.105,0.029,0.16c0.01,0.045,0.022,0.09,0.03,0.135c0.011,0.049,0.024,0.096,0.033,0.145
	c0.014,0.051,0.029,0.102,0.04,0.152c0.016,0.053,0.033,0.104,0.045,0.156c0.015,0.047,0.032,0.096,0.046,0.145
	c0.015,0.043,0.03,0.084,0.041,0.125c0.021,0.057,0.044,0.111,0.063,0.168c0.016,0.041,0.034,0.082,0.048,0.123
	c0.02,0.049,0.042,0.096,0.06,0.145c0.022,0.051,0.049,0.104,0.068,0.154c0.018,0.035,0.035,0.072,0.051,0.107
	c0.027,0.055,0.056,0.105,0.079,0.16c0.022,0.041,0.046,0.08,0.065,0.123c0.021,0.035,0.042,0.072,0.062,0.111
	c0.031,0.051,0.064,0.102,0.092,0.156c0.027,0.045,0.056,0.086,0.081,0.131c0.024,0.039,0.051,0.076,0.073,0.117
	c0.032,0.043,0.064,0.086,0.092,0.133c0.024,0.033,0.049,0.066,0.071,0.102c0.032,0.041,0.064,0.082,0.095,0.125
	c0.037,0.045,0.075,0.092,0.109,0.141c0.025,0.031,0.052,0.061,0.076,0.094c0.034,0.039,0.072,0.08,0.104,0.121
	c0.032,0.035,0.064,0.07,0.096,0.105c0.039,0.045,0.08,0.086,0.119,0.129c0.028,0.031,0.059,0.059,0.086,0.088
	c0.037,0.037,0.076,0.072,0.111,0.111c0.038,0.035,0.076,0.068,0.11,0.105c0.036,0.031,0.073,0.063,0.107,0.096
	c0.044,0.037,0.089,0.072,0.131,0.113c0.033,0.027,0.068,0.055,0.101,0.084c0.044,0.033,0.089,0.066,0.132,0.104
	c0.034,0.025,0.069,0.05,0.102,0.075c0.047,0.033,0.094,0.066,0.139,0.102c0.035,0.023,0.071,0.045,0.104,0.072
	c0.049,0.031,0.098,0.061,0.146,0.094c0.047,0.031,0.094,0.059,0.141,0.088c0.031,0.02,0.063,0.039,0.095,0.059
	c0.049,0.027,0.1,0.055,0.147,0.086c0.048,0.025,0.098,0.049,0.146,0.078c0.043,0.021,0.086,0.041,0.128,0.064
	c0.045,0.021,0.091,0.041,0.135,0.066c0.042,0.02,0.086,0.037,0.126,0.059c0.05,0.021,0.1,0.039,0.148,0.064
	c0.058,0.021,0.118,0.043,0.176,0.07c0.02,0.008,0.039,0.016,0.06,0.023c0.075,0.025,0.15,0.051,0.224,0.08
	c0.035,0.014,0.07,0.021,0.105,0.035c0.06,0.018,0.121,0.035,0.181,0.057c0.038,0.012,0.077,0.021,0.117,0.033
	c0.055,0.014,0.112,0.027,0.168,0.045c0.043,0.01,0.085,0.018,0.126,0.029c0.058,0.012,0.112,0.023,0.169,0.037
	c0.048,0.008,0.095,0.016,0.142,0.027c0.058,0.01,0.114,0.016,0.17,0.029c0.049,0.008,0.098,0.012,0.145,0.02
	c0.049,0.008,0.097,0.012,0.144,0.018c0.07,0.008,0.141,0.014,0.212,0.023c0.039,0.004,0.078,0.004,0.117,0.008
	c0.049,0.004,0.1,0.006,0.149,0.01c0.055,0,0.109,0.002,0.163,0.006c0.079,0,0.159-0.002,0.237,0.004
	c0.029-0.002,0.059-0.002,0.088-0.002c0.061-0.004,0.121-0.008,0.182-0.006c0.033-0.004,0.066-0.004,0.1-0.006
	c0.055-0.004,0.107-0.012,0.161-0.014c0.045-0.004,0.09-0.012,0.135-0.016c0.057-0.006,0.113-0.016,0.169-0.021
	c0.055-0.008,0.109-0.02,0.164-0.025c0.045-0.01,0.091-0.018,0.138-0.027c0.055-0.01,0.106-0.021,0.161-0.031
	c0.053-0.012,0.103-0.025,0.155-0.035c0.053-0.014,0.106-0.029,0.16-0.039c0.063-0.018,0.124-0.037,0.188-0.051
	c0.055-0.016,0.106-0.033,0.161-0.047c0.042-0.014,0.086-0.029,0.128-0.039c0.069-0.025,0.136-0.051,0.205-0.068
	c0.046-0.018,0.091-0.035,0.137-0.051c0.062-0.021,0.123-0.049,0.187-0.068c0.06-0.023,0.118-0.049,0.179-0.07
	c0.043-0.018,0.085-0.039,0.129-0.053c0.059-0.027,0.115-0.055,0.175-0.078c0.04-0.018,0.079-0.037,0.121-0.055
	c0.064-0.033,0.13-0.068,0.199-0.096c0.044-0.021,0.087-0.047,0.132-0.068c0.041-0.02,0.079-0.041,0.12-0.061
	c0.05-0.029,0.097-0.059,0.146-0.082c0.056-0.031,0.11-0.068,0.168-0.098c0.04-0.021,0.078-0.049,0.119-0.072
	c0.04-0.023,0.076-0.049,0.115-0.072c0.035-0.021,0.069-0.047,0.105-0.068c0.054-0.036,0.106-0.077,0.162-0.112
	c0.794-0.555,1.813-0.791,2.831-0.543C106.179,34.504,107.297,36.325,106.832,38.124z M40.362,25.221
	c0,0.088,0.008,0.174,0.002,0.26c0,0.018-0.004,0.035-0.002,0.055c-0.002,0.09,0.004,0.178-0.006,0.268
	c0,0.008-0.002,0.016-0.002,0.023c-0.004,0.098,0,0.197-0.012,0.295c0,0.023-0.004,0.047-0.004,0.07
	c-0.008,0.082-0.004,0.164-0.018,0.246c0,0.018-0.004,0.037-0.004,0.055c-0.008,0.088-0.008,0.176-0.021,0.262
	c-0.002,0.025-0.008,0.051-0.01,0.076c-0.01,0.082-0.012,0.164-0.027,0.244c0,0.01-0.002,0.018-0.004,0.027
	c-0.012,0.096-0.018,0.191-0.037,0.287c-0.002,0.023-0.01,0.045-0.012,0.068c-0.014,0.08-0.018,0.16-0.037,0.238
	c-0.002,0.02-0.008,0.037-0.01,0.057c-0.016,0.088-0.025,0.176-0.049,0.262c0,0.004,0,0.006,0,0.008
	c-0.02,0.1-0.031,0.199-0.061,0.297c-0.002,0.023-0.012,0.045-0.016,0.068c-0.018,0.078-0.029,0.158-0.053,0.234
	c0,0.008-0.004,0.014-0.006,0.021c-0.023,0.094-0.037,0.189-0.068,0.281c-0.004,0.025-0.016,0.049-0.021,0.076
	c-0.021,0.072-0.033,0.148-0.061,0.221c-0.002,0.01-0.004,0.018-0.006,0.025c-0.029,0.094-0.049,0.188-0.084,0.279
	c-0.002,0.006-0.006,0.014-0.008,0.02c-0.029,0.092-0.051,0.186-0.088,0.273c0,0.004-0.004,0.008-0.004,0.014
	c-0.031,0.09-0.055,0.186-0.094,0.273c-0.006,0.018-0.014,0.033-0.02,0.051c-0.029,0.078-0.051,0.158-0.086,0.234
	c-0.006,0.014-0.014,0.027-0.018,0.043c-0.033,0.08-0.057,0.164-0.096,0.242c-0.004,0.012-0.012,0.023-0.016,0.037
	c-0.035,0.082-0.064,0.168-0.105,0.248c0,0.002-0.002,0.004-0.004,0.008c-0.039,0.09-0.072,0.182-0.119,0.268
	c-0.006,0.018-0.018,0.033-0.023,0.049c-0.037,0.074-0.064,0.152-0.107,0.225c0,0.004-0.004,0.008-0.006,0.014
	c-0.043,0.086-0.078,0.176-0.129,0.258c-0.006,0.016-0.016,0.029-0.023,0.045c-0.039,0.074-0.072,0.152-0.117,0.223
	c-0.004,0.004-0.006,0.01-0.008,0.014c-0.049,0.084-0.088,0.174-0.141,0.254c-0.004,0.006-0.008,0.01-0.01,0.016
	c-0.049,0.08-0.088,0.164-0.141,0.24c-0.008,0.014-0.016,0.023-0.023,0.037c-0.045,0.072-0.082,0.148-0.133,0.219
	c-0.006,0.008-0.014,0.018-0.018,0.025c-0.049,0.076-0.092,0.156-0.146,0.229c-0.006,0.008-0.012,0.016-0.016,0.023
	c-0.053,0.076-0.098,0.156-0.156,0.227c-0.057,0.082-0.107,0.168-0.17,0.242c-0.008,0.012-0.018,0.021-0.023,0.033
	c-0.053,0.068-0.098,0.143-0.154,0.207c-0.002,0.002-0.004,0.004-0.004,0.004c-0.059,0.078-0.113,0.16-0.178,0.23
	c-0.01,0.014-0.021,0.025-0.033,0.039c-0.051,0.064-0.098,0.133-0.156,0.193c-0.063,0.076-0.121,0.158-0.193,0.229
	c-0.008,0.01-0.018,0.02-0.025,0.029c-0.057,0.063-0.107,0.133-0.168,0.19c-0.004,0.004-0.01,0.01-0.014,0.014
	c-0.063,0.068-0.121,0.143-0.188,0.205c-0.01,0.012-0.021,0.02-0.033,0.031c-0.059,0.061-0.111,0.127-0.174,0.182
	c-0.002,0.004-0.004,0.004-0.006,0.006c-0.07,0.07-0.133,0.145-0.207,0.205c-0.006,0.006-0.01,0.01-0.014,0.014
	c-0.066,0.063-0.127,0.133-0.199,0.189c-0.01,0.01-0.021,0.018-0.031,0.029c-0.063,0.057-0.121,0.119-0.189,0.172
	c-0.074,0.064-0.145,0.137-0.225,0.195c-0.012,0.012-0.025,0.02-0.037,0.031c-0.063,0.051-0.121,0.109-0.188,0.156
	c-0.004,0.004-0.008,0.006-0.012,0.01c-0.074,0.059-0.143,0.123-0.219,0.176c-0.016,0.012-0.033,0.023-0.047,0.035
	c-0.064,0.047-0.123,0.102-0.189,0.145c-0.082,0.059-0.156,0.123-0.242,0.176c-0.012,0.008-0.021,0.016-0.033,0.023
	c-0.07,0.047-0.137,0.102-0.209,0.145c-0.002,0.002-0.004,0.002-0.006,0.004c-0.08,0.055-0.158,0.115-0.242,0.16
	c-0.008,0.006-0.018,0.012-0.025,0.016c-0.074,0.047-0.146,0.102-0.225,0.143c-0.008,0.006-0.018,0.01-0.025,0.016
	c-0.078,0.047-0.15,0.1-0.23,0.139c-0.002,0.002-0.004,0.002-0.006,0.004c-0.084,0.049-0.164,0.104-0.252,0.145
	c-0.01,0.006-0.02,0.01-0.029,0.016c-0.076,0.041-0.148,0.088-0.227,0.123c-0.016,0.01-0.033,0.016-0.047,0.025
	c-0.074,0.035-0.145,0.08-0.219,0.111c-0.01,0.006-0.021,0.01-0.029,0.014c-0.08,0.039-0.158,0.086-0.242,0.119
	c-0.01,0.004-0.021,0.008-0.031,0.014c-0.08,0.035-0.158,0.08-0.242,0.111c-0.006,0.002-0.014,0.004-0.021,0.008
	c-0.084,0.037-0.164,0.08-0.252,0.109c-0.01,0.006-0.02,0.008-0.031,0.014c-0.082,0.031-0.16,0.072-0.244,0.1
	c-0.012,0.004-0.023,0.008-0.035,0.012c-0.082,0.031-0.162,0.07-0.246,0.094c-0.012,0.006-0.023,0.008-0.033,0.012
	c-0.084,0.029-0.166,0.066-0.252,0.09c-0.01,0.002-0.02,0.004-0.027,0.008c-0.086,0.027-0.168,0.064-0.258,0.084
	c-0.014,0.006-0.029,0.008-0.043,0.014c-0.082,0.023-0.162,0.057-0.246,0.074c-0.01,0.004-0.02,0.006-0.029,0.008
	c-0.088,0.025-0.174,0.057-0.264,0.074c-0.012,0.004-0.021,0.004-0.031,0.008c-0.088,0.021-0.174,0.051-0.262,0.066
	c-0.012,0.004-0.025,0.004-0.037,0.008c-0.086,0.02-0.17,0.047-0.256,0.059c-0.02,0.006-0.039,0.008-0.057,0.012
	c-0.08,0.016-0.158,0.041-0.24,0.051c-0.02,0.004-0.037,0.004-0.055,0.01c-0.084,0.014-0.166,0.037-0.25,0.045
	c-0.016,0.004-0.031,0.004-0.045,0.006c-0.086,0.014-0.17,0.035-0.256,0.041c-0.02,0.004-0.037,0.004-0.059,0.008
	c-0.082,0.01-0.164,0.029-0.248,0.033c-0.014,0.002-0.031,0.002-0.047,0.004c-0.086,0.01-0.172,0.027-0.26,0.029
	c-0.016,0.002-0.031,0.002-0.047,0.004c-0.088,0.008-0.174,0.023-0.262,0.023c-0.018,0.002-0.033,0-0.049,0.002
	c-0.088,0.006-0.174,0.02-0.26,0.018c-0.02,0.002-0.039,0-0.059,0.002c-0.084,0.002-0.168,0.014-0.254,0.01
	c-0.018,0-0.033-0.002-0.051,0c-0.088,0-0.176,0.01-0.264,0.004c-0.018,0.002-0.035-0.002-0.051,0
	c-0.088-0.002-0.174,0.006-0.26-0.002c-0.023,0.002-0.047-0.004-0.07-0.002c-0.082-0.004-0.164,0.002-0.244-0.008
	c-0.023,0-0.043-0.004-0.064-0.004c-0.084-0.006-0.166-0.002-0.248-0.014c-0.021,0-0.043-0.004-0.064-0.006
	c-0.084-0.006-0.17-0.006-0.254-0.02c-0.01,0-0.02-0.002-0.029-0.004c-0.094-0.01-0.188-0.01-0.279-0.027
	c-0.02-0.002-0.041-0.008-0.061-0.008c-0.08-0.012-0.164-0.014-0.244-0.031c-0.016-0.002-0.033-0.006-0.049-0.008
	c-0.086-0.014-0.174-0.018-0.258-0.037c-0.02-0.002-0.037-0.01-0.057-0.012c-0.082-0.014-0.166-0.021-0.246-0.043
	c-0.014-0.002-0.027-0.006-0.039-0.008c-0.09-0.018-0.18-0.027-0.268-0.053c-0.01-0.002-0.02-0.006-0.029-0.006
	c-0.088-0.021-0.18-0.033-0.268-0.061c-0.018-0.002-0.035-0.01-0.053-0.014c-0.08-0.02-0.162-0.031-0.24-0.059
	c-0.016-0.004-0.029-0.01-0.043-0.012c-0.084-0.023-0.168-0.037-0.25-0.066c-0.021-0.006-0.041-0.016-0.064-0.02
	c-0.078-0.025-0.156-0.041-0.232-0.07c-0.002,0-0.002-0.002-0.004-0.002c-0.094-0.029-0.193-0.053-0.287-0.092
	c-0.012-0.004-0.025-0.01-0.039-0.014c-0.08-0.029-0.162-0.049-0.24-0.084c-0.016-0.004-0.033-0.014-0.051-0.02
	c-0.076-0.029-0.156-0.051-0.23-0.086c-0.016-0.004-0.029-0.012-0.043-0.016c-0.082-0.033-0.166-0.059-0.244-0.1
	c0,0-0.002,0-0.004,0c-0.09-0.039-0.184-0.07-0.27-0.117c-0.016-0.004-0.027-0.012-0.041-0.018c-0.076-0.035-0.156-0.063-0.23-0.105
	c-0.01-0.002-0.018-0.008-0.025-0.012c-0.082-0.039-0.166-0.07-0.244-0.117c-0.016-0.006-0.029-0.016-0.047-0.023
	c-0.072-0.037-0.148-0.068-0.219-0.111c-0.008-0.004-0.016-0.01-0.023-0.014c-0.082-0.043-0.168-0.08-0.246-0.133
	c-0.086-0.047-0.174-0.088-0.256-0.145c-0.016-0.008-0.031-0.02-0.047-0.027c-0.068-0.043-0.141-0.076-0.205-0.123
	c-0.01-0.004-0.02-0.012-0.029-0.018c-0.074-0.047-0.154-0.088-0.227-0.143c-0.008-0.004-0.016-0.012-0.023-0.016
	c-0.076-0.051-0.154-0.094-0.227-0.148c-0.002-0.002-0.006-0.004-0.008-0.006c-0.08-0.055-0.162-0.104-0.236-0.164
	c-0.008-0.004-0.014-0.01-0.021-0.014c-0.072-0.055-0.15-0.1-0.219-0.16c-0.006-0.004-0.012-0.01-0.02-0.014
	c-0.07-0.055-0.148-0.102-0.213-0.162c-0.016-0.01-0.029-0.023-0.047-0.035c-0.063-0.051-0.131-0.096-0.189-0.15
	c-0.076-0.064-0.158-0.121-0.229-0.191c-0.014-0.01-0.023-0.021-0.035-0.029c-0.061-0.055-0.127-0.102-0.186-0.16
	c-0.012-0.01-0.021-0.021-0.035-0.031c-0.063-0.059-0.131-0.109-0.188-0.172c-0.074-0.068-0.15-0.129-0.215-0.201
	c-0.018-0.016-0.029-0.031-0.047-0.047c-0.055-0.055-0.113-0.104-0.164-0.162c-0.07-0.072-0.146-0.139-0.211-0.217
	c-0.008-0.008-0.016-0.02-0.025-0.027c-0.057-0.063-0.119-0.117-0.172-0.184c-0.01-0.01-0.018-0.021-0.027-0.033
	c-0.057-0.063-0.119-0.122-0.172-0.19c-0.004-0.006-0.008-0.012-0.014-0.016c-0.059-0.072-0.127-0.137-0.182-0.215
	c-0.002-0.002-0.004-0.006-0.008-0.01c-0.059-0.072-0.125-0.141-0.178-0.219c-0.008-0.008-0.014-0.018-0.021-0.025
	c-0.053-0.07-0.113-0.133-0.16-0.207c-0.01-0.012-0.018-0.023-0.027-0.035c-0.051-0.068-0.107-0.133-0.152-0.205
	c-0.004-0.004-0.006-0.008-0.01-0.012c-0.055-0.078-0.117-0.15-0.164-0.232c-0.006-0.006-0.01-0.014-0.014-0.02
	c-0.053-0.076-0.109-0.148-0.156-0.23c-0.055-0.082-0.115-0.16-0.16-0.246c-0.012-0.016-0.02-0.033-0.031-0.049
	c-0.041-0.068-0.09-0.133-0.127-0.205c-0.004-0.008-0.008-0.016-0.014-0.023c-0.047-0.08-0.102-0.156-0.141-0.24
	c-0.002-0.002-0.004-0.006-0.006-0.008c-0.047-0.086-0.102-0.166-0.143-0.254c-0.002-0.004-0.002-0.008-0.006-0.012
	c-0.043-0.084-0.096-0.162-0.133-0.25c-0.01-0.018-0.018-0.037-0.027-0.055c-0.035-0.072-0.078-0.139-0.107-0.213
	c-0.006-0.01-0.008-0.018-0.014-0.025c-0.039-0.084-0.086-0.164-0.119-0.252c-0.006-0.01-0.01-0.02-0.014-0.029
	c-0.037-0.082-0.082-0.162-0.111-0.246c-0.004-0.006-0.004-0.012-0.008-0.018c-0.037-0.088-0.082-0.172-0.111-0.262
	c-0.006-0.012-0.01-0.027-0.016-0.039c-0.031-0.08-0.07-0.156-0.096-0.238c-0.008-0.018-0.014-0.037-0.021-0.055
	c-0.029-0.08-0.064-0.156-0.088-0.236V30.16c-0.035-0.098-0.076-0.191-0.102-0.291c-0.004-0.006-0.004-0.014-0.008-0.02
	c-0.027-0.088-0.064-0.174-0.086-0.264c-0.008-0.021-0.012-0.043-0.02-0.064c-0.021-0.076-0.053-0.15-0.068-0.227
	c-0.006-0.016-0.008-0.033-0.014-0.047c-0.023-0.086-0.055-0.168-0.07-0.256c-0.004-0.012-0.006-0.025-0.01-0.037
	c-0.021-0.088-0.053-0.174-0.068-0.264c-0.002-0.012-0.004-0.023-0.006-0.035c-0.021-0.09-0.049-0.176-0.063-0.268
	c-0.004-0.012-0.004-0.023-0.008-0.035c-0.018-0.088-0.045-0.174-0.055-0.262c-0.008-0.027-0.01-0.055-0.016-0.082
	c-0.014-0.076-0.033-0.15-0.041-0.227c-0.004-0.012-0.004-0.023-0.006-0.035c-0.016-0.094-0.039-0.186-0.047-0.279
	c-0.002-0.016-0.002-0.029-0.006-0.043c-0.01-0.088-0.031-0.176-0.037-0.264c-0.004-0.021-0.004-0.045-0.006-0.066
	c-0.01-0.082-0.027-0.162-0.029-0.244c-0.004-0.021-0.004-0.045-0.008-0.066c-0.006-0.086-0.021-0.17-0.023-0.254
	c0-0.012,0-0.021-0.002-0.031c-0.006-0.094-0.021-0.188-0.02-0.283c-0.004-0.027-0.002-0.057-0.004-0.084
	c-0.004-0.078-0.016-0.154-0.012-0.232c-0.002-0.016,0-0.029-0.002-0.043c-0.002-0.094-0.014-0.188-0.008-0.281
	c-0.002-0.02,0.002-0.041,0-0.061c0-0.086-0.008-0.17-0.002-0.256c-0.002-0.025,0.002-0.051,0.002-0.076
	c0.002-0.084-0.004-0.166,0.004-0.248c0-0.021,0.004-0.041,0.004-0.063c0.004-0.086-0.002-0.174,0.01-0.26
	c0-0.018,0.004-0.037,0.004-0.057c0.006-0.088,0.004-0.178,0.016-0.266c0-0.01,0.004-0.018,0.004-0.027
	c0.008-0.096,0.008-0.191,0.023-0.285c0-0.029,0.008-0.059,0.01-0.086c0.01-0.078,0.01-0.154,0.025-0.23
	c0-0.008,0.002-0.016,0.002-0.023c0.012-0.098,0.018-0.195,0.037-0.291c0.002-0.025,0.01-0.051,0.012-0.078
	c0.014-0.076,0.018-0.154,0.037-0.229c0-0.018,0.006-0.033,0.008-0.049c0.016-0.088,0.023-0.178,0.045-0.264
	c0.002-0.016,0.008-0.029,0.01-0.043c0.02-0.088,0.027-0.18,0.053-0.266c0.002-0.014,0.008-0.025,0.008-0.037
	c0.021-0.088,0.031-0.178,0.059-0.262c0.004-0.025,0.014-0.047,0.018-0.07c0.02-0.079,0.033-0.159,0.057-0.237
	c0.002-0.006,0.004-0.012,0.006-0.018c0.025-0.094,0.043-0.191,0.076-0.283c0.004-0.014,0.01-0.027,0.014-0.043
	c0.023-0.084,0.041-0.17,0.072-0.25c0.004-0.012,0.008-0.021,0.01-0.031c0.027-0.086,0.049-0.176,0.082-0.26
	c0.006-0.023,0.016-0.045,0.023-0.068c0.027-0.074,0.045-0.15,0.076-0.223c0.002-0.01,0.008-0.02,0.012-0.029
	c0.031-0.088,0.057-0.18,0.096-0.264c0.002-0.006,0.006-0.01,0.008-0.016c0.033-0.09,0.061-0.182,0.104-0.268
	c0.004-0.012,0.012-0.025,0.016-0.037c0.033-0.08,0.059-0.162,0.098-0.238c0.006-0.016,0.016-0.031,0.021-0.047
	c0.035-0.076,0.063-0.158,0.102-0.232c0.006-0.01,0.012-0.021,0.018-0.031c0.039-0.084,0.07-0.17,0.115-0.248
	c0.045-0.09,0.082-0.184,0.135-0.27c0.006-0.02,0.02-0.035,0.027-0.055c0.037-0.068,0.066-0.141,0.107-0.205
	c0.008-0.018,0.018-0.031,0.025-0.047c0.041-0.074,0.076-0.15,0.123-0.221c0.002-0.008,0.008-0.014,0.01-0.021
	c0.049-0.08,0.088-0.164,0.141-0.24c0.006-0.012,0.016-0.023,0.02-0.033c0.047-0.074,0.086-0.152,0.137-0.223
	c0.002-0.006,0.006-0.01,0.008-0.014c0.053-0.08,0.096-0.164,0.152-0.24c0.008-0.012,0.016-0.021,0.023-0.033
	c0.049-0.07,0.09-0.146,0.145-0.215c0.002-0.002,0.004-0.006,0.006-0.008c0.055-0.078,0.104-0.162,0.166-0.236
	c0.008-0.012,0.018-0.023,0.025-0.035c0.051-0.068,0.096-0.143,0.15-0.205c0.061-0.08,0.115-0.162,0.18-0.236
	c0.012-0.014,0.023-0.025,0.033-0.039c0.053-0.064,0.098-0.133,0.154-0.191c0.615-0.738,1.52-1.217,2.543-1.217
	c1.854,0,3.355,1.539,3.357,3.438c0,0.883-0.334,1.68-0.869,2.289c-0.025,0.033-0.049,0.068-0.076,0.1
	c-0.035,0.049-0.068,0.096-0.105,0.143c-0.027,0.041-0.057,0.084-0.088,0.123c-0.027,0.043-0.055,0.086-0.084,0.125
	c-0.025,0.041-0.051,0.084-0.078,0.123c-0.027,0.047-0.055,0.094-0.086,0.141c-0.02,0.033-0.037,0.068-0.059,0.102
	c-0.029,0.053-0.057,0.107-0.088,0.16c-0.023,0.043-0.043,0.086-0.068,0.127c-0.025,0.053-0.049,0.105-0.078,0.156
	c-0.018,0.037-0.033,0.074-0.051,0.111c-0.02,0.041-0.035,0.084-0.057,0.125c-0.023,0.057-0.045,0.113-0.07,0.17
	c-0.016,0.039-0.029,0.078-0.047,0.117c-0.021,0.059-0.041,0.117-0.064,0.174c-0.012,0.035-0.023,0.07-0.037,0.105
	c-0.018,0.057-0.033,0.113-0.053,0.168c-0.016,0.049-0.027,0.098-0.043,0.145c-0.016,0.057-0.027,0.113-0.047,0.17
	c-0.012,0.045-0.021,0.09-0.033,0.135c-0.012,0.051-0.021,0.102-0.033,0.152s-0.02,0.104-0.033,0.156
	c-0.008,0.053-0.016,0.105-0.027,0.158c-0.01,0.057-0.016,0.113-0.027,0.17c-0.006,0.037-0.008,0.074-0.016,0.111
	c-0.006,0.063-0.012,0.127-0.02,0.189c-0.006,0.049-0.008,0.098-0.014,0.146c-0.004,0.063-0.006,0.127-0.014,0.189
	c-0.002,0.039-0.002,0.076-0.004,0.115c-0.002,0.068,0,0.139-0.004,0.207c0,0.041,0,0.082,0,0.125c0.002,0.08,0.008,0.16,0.004,0.24
	c0,0.021,0.002,0.043,0.004,0.064c0.006,0.068,0.012,0.139,0.014,0.207c0.006,0.061,0.014,0.123,0.018,0.184
	c0.004,0.045,0.012,0.09,0.014,0.137c0.008,0.057,0.02,0.115,0.025,0.174c0.004,0.035,0.012,0.072,0.016,0.107
	c0.016,0.076,0.031,0.152,0.041,0.229c0.008,0.031,0.014,0.061,0.02,0.092c0.014,0.061,0.029,0.119,0.041,0.18
	c0.008,0.037,0.02,0.074,0.027,0.111c0.021,0.072,0.045,0.145,0.061,0.219c0.01,0.033,0.021,0.066,0.031,0.1
	c0.018,0.059,0.041,0.117,0.057,0.178c0.012,0.033,0.025,0.068,0.035,0.102c0.025,0.064,0.051,0.129,0.072,0.195
	c0.014,0.037,0.031,0.074,0.045,0.111c0.023,0.055,0.049,0.109,0.07,0.166c0.016,0.039,0.035,0.076,0.053,0.117
	c0.02,0.041,0.039,0.08,0.057,0.121c0.029,0.057,0.061,0.113,0.086,0.172c0.023,0.041,0.047,0.082,0.066,0.125
	c0.025,0.043,0.053,0.088,0.076,0.133c0.016,0.031,0.035,0.061,0.053,0.092c0.035,0.057,0.074,0.115,0.107,0.174
	c0.027,0.043,0.055,0.082,0.08,0.125c0.027,0.041,0.057,0.08,0.084,0.121s0.059,0.08,0.084,0.121
	c0.029,0.039,0.059,0.074,0.084,0.113c0.031,0.039,0.064,0.078,0.094,0.119c0.035,0.043,0.07,0.084,0.104,0.129
	c0.031,0.037,0.064,0.072,0.096,0.111c0.027,0.031,0.057,0.063,0.084,0.094c0.039,0.045,0.082,0.086,0.121,0.133
	c0.035,0.035,0.07,0.07,0.105,0.107c0.031,0.033,0.064,0.063,0.096,0.096c0.043,0.041,0.088,0.08,0.129,0.121
	c0.027,0.027,0.059,0.053,0.088,0.08c0.041,0.035,0.084,0.07,0.123,0.107c0.043,0.035,0.086,0.068,0.125,0.105
	c0.033,0.025,0.066,0.051,0.1,0.078c0.041,0.031,0.082,0.061,0.121,0.092c0.055,0.039,0.109,0.074,0.158,0.115
	c0.025,0.018,0.049,0.033,0.072,0.051c0.047,0.029,0.096,0.061,0.143,0.094c0.037,0.023,0.076,0.047,0.113,0.072
	c0.049,0.027,0.098,0.055,0.146,0.086c0.051,0.029,0.104,0.057,0.154,0.088c0.031,0.018,0.064,0.035,0.096,0.053
	c0.037,0.018,0.072,0.035,0.107,0.055c0.07,0.033,0.141,0.064,0.209,0.102c0.031,0.016,0.066,0.029,0.098,0.045
	c0.047,0.02,0.094,0.039,0.141,0.061c0.051,0.02,0.104,0.039,0.154,0.063c0.033,0.012,0.066,0.023,0.102,0.037
	c0.063,0.021,0.127,0.043,0.191,0.068c0.037,0.012,0.074,0.021,0.109,0.035c0.049,0.016,0.098,0.027,0.146,0.045
	c0.055,0.014,0.109,0.027,0.164,0.045c0.045,0.012,0.092,0.021,0.139,0.035c0.051,0.012,0.104,0.02,0.152,0.035
	c0.049,0.008,0.096,0.016,0.143,0.027c0.059,0.012,0.119,0.02,0.178,0.031c0.039,0.008,0.076,0.012,0.115,0.02
	c0.066,0.008,0.133,0.014,0.199,0.025c0.037,0.004,0.074,0.006,0.109,0.012c0.063,0.004,0.125,0.008,0.186,0.016
	c0.053,0.002,0.105,0.004,0.158,0.01c0.049,0.002,0.098,0,0.146,0.004c0.055,0.002,0.109,0,0.164,0.002c0.053,0,0.105-0.002,0.158,0
	c0.057-0.004,0.111-0.008,0.166-0.006c0.057-0.004,0.111-0.01,0.166-0.01c0.051-0.004,0.102-0.012,0.152-0.014
	c0.047-0.004,0.094-0.012,0.143-0.014c0.057-0.008,0.115-0.018,0.172-0.023c0.055-0.008,0.107-0.018,0.16-0.023
	c0.047-0.008,0.092-0.02,0.137-0.025c0.049-0.01,0.098-0.021,0.145-0.029c0.053-0.012,0.104-0.025,0.156-0.033
	c0.051-0.014,0.104-0.029,0.156-0.039c0.049-0.014,0.096-0.029,0.146-0.041c0.043-0.014,0.084-0.027,0.127-0.037
	c0.057-0.02,0.111-0.041,0.17-0.057c0.041-0.014,0.082-0.031,0.125-0.043c0.049-0.02,0.096-0.039,0.145-0.055
	c0.053-0.021,0.105-0.045,0.156-0.063c0.037-0.018,0.074-0.033,0.111-0.049c0.055-0.025,0.107-0.051,0.162-0.072
	c0.041-0.021,0.082-0.043,0.125-0.061c0.037-0.02,0.074-0.041,0.113-0.059c0.053-0.029,0.104-0.061,0.16-0.086
	c0.045-0.025,0.088-0.053,0.133-0.076c0.041-0.023,0.078-0.049,0.119-0.07c0.045-0.029,0.09-0.061,0.137-0.086
	c0.033-0.023,0.068-0.047,0.104-0.068c0.043-0.031,0.084-0.063,0.129-0.09c0.047-0.035,0.094-0.072,0.143-0.105
	c0.033-0.023,0.063-0.049,0.098-0.072c0.041-0.033,0.082-0.068,0.125-0.1c0.037-0.031,0.072-0.063,0.109-0.092
	c0.045-0.039,0.088-0.078,0.133-0.115c0.031-0.027,0.059-0.057,0.09-0.082c0.039-0.035,0.076-0.074,0.115-0.107
	c0.037-0.037,0.07-0.074,0.109-0.107c0.033-0.035,0.064-0.07,0.1-0.104c0.037-0.043,0.076-0.086,0.117-0.127
	c0.029-0.031,0.057-0.066,0.086-0.098c0.037-0.043,0.072-0.086,0.109-0.127c0.027-0.033,0.053-0.068,0.08-0.1
	c0.035-0.045,0.068-0.092,0.105-0.135c0.025-0.035,0.049-0.07,0.076-0.102c0.033-0.049,0.064-0.096,0.1-0.141
	c0.031-0.047,0.061-0.094,0.092-0.139c0.021-0.031,0.041-0.063,0.063-0.094c0.029-0.047,0.059-0.098,0.09-0.145
	c0.027-0.047,0.053-0.096,0.084-0.141c0.021-0.043,0.045-0.086,0.068-0.127c0.023-0.043,0.045-0.088,0.07-0.133
	c0.021-0.041,0.041-0.084,0.064-0.123c0.021-0.049,0.043-0.098,0.068-0.146c0.025-0.057,0.049-0.115,0.078-0.172
	c0.008-0.02,0.016-0.039,0.023-0.059c0.029-0.074,0.057-0.15,0.09-0.223c0.014-0.033,0.023-0.068,0.037-0.104
	c0.021-0.059,0.039-0.119,0.064-0.178c0.012-0.039,0.023-0.078,0.037-0.117c0.016-0.055,0.031-0.111,0.051-0.166
	c0.01-0.041,0.02-0.084,0.033-0.125c0.014-0.057,0.025-0.111,0.043-0.166c0.01-0.049,0.02-0.096,0.031-0.143
	c0.012-0.057,0.021-0.113,0.035-0.168c0.01-0.049,0.016-0.098,0.025-0.145c0.008-0.047,0.016-0.096,0.023-0.143
	c0.01-0.07,0.016-0.141,0.029-0.211c0.006-0.039,0.008-0.078,0.014-0.117c0.004-0.049,0.008-0.1,0.014-0.148
	c0.002-0.055,0.006-0.109,0.012-0.162c0.002-0.08,0.002-0.16,0.012-0.238c0-0.029,0-0.059,0.002-0.088
	c-0.002-0.061-0.004-0.121,0-0.182c-0.002-0.033-0.002-0.066-0.002-0.1c-0.004-0.055-0.008-0.107-0.01-0.162
	c-0.002-0.045-0.008-0.09-0.01-0.135c-0.004-0.057-0.012-0.113-0.016-0.17c-0.008-0.055-0.016-0.109-0.021-0.164
	c-0.006-0.045-0.014-0.092-0.02-0.139c-0.01-0.055-0.02-0.107-0.027-0.162c-0.01-0.053-0.021-0.104-0.029-0.156
	c-0.012-0.053-0.025-0.107-0.033-0.16c-0.016-0.064-0.033-0.127-0.045-0.191c-0.014-0.055-0.029-0.107-0.041-0.162
	c-0.012-0.043-0.025-0.086-0.035-0.131c-0.021-0.068-0.045-0.137-0.061-0.207c-0.016-0.045-0.033-0.092-0.045-0.137
	c-0.021-0.063-0.045-0.125-0.063-0.189c-0.021-0.061-0.047-0.119-0.064-0.182c-0.016-0.043-0.035-0.086-0.049-0.129
	c-0.023-0.061-0.051-0.119-0.07-0.18c-0.018-0.039-0.035-0.08-0.051-0.121c-0.031-0.066-0.064-0.133-0.09-0.203
	c-0.02-0.045-0.043-0.088-0.063-0.135c-0.02-0.041-0.039-0.08-0.059-0.121c-0.025-0.051-0.053-0.1-0.076-0.15
	c-0.029-0.057-0.063-0.111-0.09-0.17c-0.021-0.041-0.047-0.08-0.068-0.123c-0.023-0.039-0.047-0.076-0.068-0.117
	c-0.021-0.035-0.045-0.07-0.064-0.107c-0.037-0.055-0.074-0.109-0.107-0.166c-0.527-0.813-0.729-1.838-0.445-2.848
	c0.514-1.824,2.373-2.879,4.154-2.352c0.762,0.225,1.373,0.709,1.799,1.322c0.016,0.021,0.025,0.043,0.041,0.064
	c0.064,0.094,0.131,0.186,0.186,0.287c0,0.002,0.002,0.004,0.002,0.004c0.047,0.078,0.1,0.15,0.141,0.232
	c0.049,0.082,0.104,0.16,0.145,0.246c0.002,0.004,0.002,0.008,0.006,0.012c0.043,0.08,0.094,0.154,0.131,0.238
	c0.047,0.084,0.1,0.166,0.137,0.256c0.043,0.086,0.094,0.168,0.131,0.256c0.041,0.088,0.09,0.172,0.125,0.262
	c0.041,0.088,0.088,0.172,0.121,0.262c0.006,0.012,0.01,0.023,0.016,0.033c0.033,0.078,0.074,0.154,0.104,0.234
	c0.037,0.092,0.084,0.182,0.115,0.275c0,0.004,0.002,0.006,0.002,0.008c0.035,0.09,0.078,0.174,0.105,0.266
	c0.035,0.094,0.078,0.186,0.105,0.281c0.002,0.004,0.002,0.01,0.004,0.014c0.031,0.088,0.07,0.172,0.094,0.262
	c0.006,0.01,0.008,0.023,0.014,0.035c0.027,0.084,0.063,0.164,0.084,0.25c0.031,0.098,0.068,0.191,0.09,0.291
	c0.002,0.004,0.002,0.008,0.004,0.012c0.027,0.092,0.063,0.182,0.082,0.275c0.002,0.008,0.004,0.016,0.006,0.023
	c0.025,0.09,0.057,0.176,0.074,0.266c0.006,0.016,0.006,0.031,0.012,0.045c0.021,0.086,0.051,0.168,0.064,0.254
	c0.023,0.102,0.055,0.199,0.07,0.301c0.004,0.01,0.004,0.021,0.008,0.031c0.018,0.09,0.043,0.176,0.055,0.268
	c0.002,0.004,0.002,0.01,0.004,0.014c0.018,0.096,0.045,0.188,0.055,0.285c0.006,0.021,0.008,0.045,0.012,0.066
	c0.012,0.078,0.033,0.156,0.041,0.234c0.004,0.02,0.004,0.037,0.008,0.057c0.012,0.086,0.031,0.17,0.037,0.258
	c0.002,0.008,0.002,0.016,0.004,0.021c0.012,0.096,0.031,0.191,0.037,0.289c0.002,0.018,0.002,0.035,0.004,0.053
	c0.008,0.084,0.025,0.17,0.027,0.254c0.002,0.021,0.002,0.041,0.004,0.061c0.006,0.086,0.021,0.17,0.021,0.254
	c0.002,0.018,0,0.035,0.002,0.051c0.004,0.09,0.018,0.178,0.016,0.268c0.002,0.021,0,0.045,0,0.068
	c0.002,0.082,0.012,0.164,0.008,0.248C40.364,25.18,40.36,25.201,40.362,25.221z M53.175,24.236
	c0.021,0.203,0.028,0.408,0.014,0.613c0.017,0.203,0.02,0.408,0,0.611c0.012,0.205,0.01,0.41-0.015,0.613
	c0.007,0.203,0,0.404-0.028,0.605c0.002,0.201-0.01,0.404-0.042,0.604c-0.003,0.199-0.019,0.4-0.056,0.596
	c-0.007,0.203-0.027,0.402-0.069,0.6c-0.012,0.201-0.036,0.398-0.082,0.592c-0.017,0.199-0.046,0.396-0.096,0.588
	c-0.021,0.197-0.054,0.391-0.107,0.582c-0.025,0.197-0.063,0.393-0.122,0.584c-0.03,0.193-0.071,0.385-0.134,0.57
	c-0.034,0.195-0.079,0.387-0.146,0.57c-0.039,0.193-0.089,0.385-0.16,0.568c-0.043,0.189-0.096,0.377-0.17,0.557
	c-0.047,0.189-0.104,0.375-0.181,0.553c-0.052,0.189-0.114,0.375-0.197,0.553c-0.056,0.186-0.12,0.369-0.205,0.54
	c-0.06,0.186-0.129,0.367-0.218,0.539c-0.063,0.182-0.137,0.361-0.229,0.531c-0.067,0.184-0.146,0.361-0.243,0.531
	c-0.071,0.176-0.15,0.35-0.249,0.512c-0.075,0.18-0.16,0.354-0.265,0.518c-0.079,0.176-0.166,0.346-0.273,0.506
	c-0.082,0.172-0.173,0.34-0.283,0.498c-0.086,0.17-0.181,0.338-0.294,0.492c-0.09,0.17-0.188,0.334-0.306,0.486
	c-0.094,0.168-0.195,0.33-0.315,0.479c-0.098,0.166-0.202,0.326-0.325,0.473c-0.101,0.162-0.209,0.318-0.335,0.461
	c-0.102,0.158-0.211,0.311-0.337,0.449c-0.599,0.887-1.594,1.486-2.743,1.518c-1.898,0.055-3.479-1.439-3.536-3.338
	c-0.025-0.93,0.323-1.783,0.907-2.418c0.09-0.133,0.178-0.266,0.284-0.383c0.079-0.117,0.153-0.238,0.246-0.344
	c0.076-0.121,0.148-0.244,0.239-0.354c0.073-0.121,0.144-0.244,0.231-0.355c0.07-0.121,0.137-0.246,0.222-0.359
	c0.068-0.123,0.132-0.25,0.215-0.365c0.066-0.126,0.128-0.255,0.21-0.372c0.063-0.125,0.12-0.256,0.198-0.373
	c0.06-0.129,0.115-0.26,0.191-0.381c0.058-0.129,0.11-0.262,0.184-0.385c0.055-0.131,0.104-0.266,0.176-0.391
	c0.052-0.131,0.098-0.266,0.165-0.391c0.049-0.135,0.094-0.271,0.159-0.398c0.046-0.137,0.087-0.273,0.149-0.402
	c0.043-0.137,0.081-0.273,0.141-0.404c0.04-0.139,0.075-0.279,0.132-0.41c0.037-0.141,0.069-0.281,0.124-0.414
	c0.034-0.141,0.063-0.281,0.114-0.416c0.03-0.141,0.057-0.283,0.104-0.42c0.027-0.143,0.051-0.285,0.096-0.422
	c0.024-0.145,0.045-0.291,0.087-0.43c0.021-0.145,0.038-0.291,0.077-0.432c0.019-0.145,0.032-0.293,0.068-0.434
	c0.015-0.146,0.024-0.293,0.058-0.434c0.011-0.148,0.019-0.297,0.049-0.441c0.008-0.148,0.012-0.297,0.038-0.443
	c0.005-0.148,0.005-0.299,0.029-0.445c0.001-0.15-0.002-0.299,0.018-0.447c-0.002-0.15-0.009-0.301,0.008-0.449
	c-0.006-0.154-0.015-0.307-0.001-0.459c-0.01-0.15-0.022-0.301-0.013-0.451c-0.014-0.152-0.029-0.307-0.022-0.459
	c-0.017-0.15-0.037-0.299-0.034-0.449c-0.021-0.152-0.043-0.305-0.043-0.459c-0.023-0.146-0.05-0.293-0.054-0.441
	c-0.026-0.148-0.057-0.297-0.063-0.447c-0.029-0.145-0.063-0.29-0.073-0.438c-0.033-0.145-0.069-0.291-0.083-0.439
	c-0.036-0.143-0.076-0.285-0.093-0.43c-0.039-0.143-0.082-0.285-0.103-0.43c-0.041-0.141-0.088-0.281-0.111-0.426
	c-0.044-0.139-0.094-0.275-0.12-0.418c-0.048-0.139-0.1-0.275-0.13-0.418c-0.051-0.137-0.105-0.271-0.139-0.414
	c-0.053-0.133-0.111-0.266-0.146-0.406c-0.057-0.133-0.118-0.266-0.157-0.404c-0.059-0.131-0.122-0.26-0.164-0.398
	c-0.063-0.129-0.129-0.258-0.174-0.395c-0.064-0.129-0.134-0.254-0.182-0.389c-0.067-0.127-0.14-0.252-0.19-0.387
	c-0.069-0.125-0.145-0.246-0.197-0.379c-0.073-0.123-0.151-0.246-0.208-0.379c-0.074-0.119-0.153-0.236-0.212-0.365
	c-0.078-0.121-0.161-0.238-0.224-0.367c-0.08-0.117-0.165-0.232-0.23-0.359c-0.083-0.117-0.17-0.23-0.237-0.355
	c-0.084-0.113-0.174-0.223-0.244-0.346c-0.087-0.113-0.18-0.223-0.252-0.344c-0.091-0.111-0.185-0.219-0.261-0.338
	c-0.092-0.109-0.188-0.213-0.266-0.332c-0.094-0.104-0.192-0.205-0.271-0.322c-0.098-0.104-0.199-0.205-0.283-0.322
	c-0.099-0.102-0.201-0.199-0.287-0.313c-0.1-0.098-0.204-0.193-0.292-0.303c-0.104-0.1-0.212-0.193-0.303-0.303
	c-0.104-0.096-0.214-0.186-0.306-0.293c-0.107-0.094-0.218-0.182-0.313-0.287c-0.108-0.09-0.222-0.176-0.318-0.279
	c-0.111-0.088-0.226-0.172-0.324-0.271c-0.113-0.086-0.23-0.168-0.333-0.268c-0.114-0.084-0.233-0.162-0.337-0.26
	c-0.116-0.08-0.236-0.156-0.342-0.25c-0.118-0.078-0.239-0.152-0.347-0.244c-0.121-0.076-0.245-0.146-0.354-0.236
	c-0.122-0.074-0.246-0.143-0.358-0.229c-0.123-0.07-0.249-0.137-0.362-0.221c-0.126-0.068-0.254-0.131-0.37-0.215
	c-0.127-0.064-0.256-0.125-0.373-0.205c-0.098-0.047-0.195-0.094-0.288-0.148c-2.512,0.607-8.717,5.479-8.883,5.609v0.012
	c0,0-0.007-0.006-0.008-0.006l-0.008,0.006v-0.012c-0.167-0.131-6.375-5.006-8.886-5.611c-0.027,0.012-0.052,0.029-0.079,0.039
	c-0.123,0.072-0.244,0.146-0.376,0.201c-0.123,0.074-0.244,0.152-0.375,0.211c-0.12,0.076-0.238,0.158-0.367,0.219
	c-0.118,0.078-0.235,0.162-0.362,0.225c-0.117,0.082-0.231,0.168-0.357,0.232c-0.115,0.084-0.227,0.172-0.352,0.242
	C15.591,9.24,15.48,9.33,15.356,9.402c-0.11,0.088-0.218,0.182-0.339,0.254c-0.109,0.092-0.216,0.188-0.336,0.264
	c-0.106,0.092-0.209,0.189-0.325,0.268c-0.106,0.096-0.208,0.197-0.325,0.279c-0.103,0.098-0.201,0.199-0.315,0.283
	c-0.101,0.1-0.198,0.203-0.312,0.291c-0.098,0.102-0.192,0.207-0.302,0.295c-0.097,0.104-0.189,0.213-0.298,0.303
	c-0.094,0.107-0.184,0.217-0.29,0.311c-0.092,0.107-0.18,0.219-0.283,0.314c-0.09,0.111-0.175,0.225-0.277,0.322
	c-0.088,0.113-0.171,0.229-0.271,0.33c-0.084,0.111-0.163,0.229-0.26,0.33c-0.083,0.117-0.162,0.236-0.258,0.342
	c-0.079,0.117-0.154,0.238-0.247,0.344c-0.076,0.119-0.149,0.24-0.239,0.35c-0.075,0.121-0.146,0.246-0.234,0.357
	c-0.072,0.123-0.14,0.248-0.227,0.361c-0.069,0.123-0.133,0.25-0.216,0.363c-0.066,0.127-0.129,0.256-0.211,0.373
	c-0.063,0.127-0.124,0.258-0.203,0.377c-0.061,0.129-0.116,0.258-0.192,0.379c-0.059,0.131-0.112,0.264-0.186,0.385
	c-0.056,0.133-0.106,0.266-0.177,0.389c-0.053,0.133-0.101,0.27-0.169,0.395c-0.05,0.135-0.094,0.271-0.16,0.398
	c-0.047,0.135-0.089,0.273-0.152,0.402c-0.043,0.137-0.082,0.275-0.142,0.404c-0.041,0.139-0.077,0.279-0.135,0.412
	c-0.038,0.139-0.07,0.281-0.125,0.414c-0.035,0.141-0.064,0.281-0.116,0.416c-0.031,0.143-0.059,0.285-0.107,0.422
	c-0.028,0.143-0.052,0.287-0.098,0.424c-0.024,0.145-0.045,0.289-0.088,0.43c-0.022,0.145-0.039,0.289-0.079,0.43
	c-0.019,0.146-0.032,0.293-0.069,0.434c-0.015,0.146-0.025,0.295-0.06,0.438c-0.012,0.148-0.019,0.295-0.05,0.439
	c-0.008,0.15-0.013,0.299-0.04,0.445c-0.005,0.15-0.006,0.301-0.03,0.449c-0.002,0.148,0.001,0.299-0.021,0.447
	c0.003,0.148,0.009,0.299-0.009,0.447c0.006,0.154,0.015,0.307,0,0.459c0.01,0.152,0.022,0.303,0.012,0.455
	c0.011,0.133,0.026,0.268,0.021,0.402c0.015,0.139,0.035,0.277,0.033,0.418c0.019,0.143,0.043,0.283,0.044,0.428
	c0.022,0.139,0.05,0.277,0.055,0.418c0.026,0.143,0.058,0.285,0.065,0.428c0.03,0.145,0.064,0.287,0.076,0.434
	c0.033,0.143,0.071,0.285,0.086,0.432c0.038,0.145,0.079,0.289,0.098,0.438c0.041,0.146,0.085,0.289,0.106,0.438
	c0.045,0.146,0.092,0.289,0.117,0.439c0.048,0.145,0.099,0.291,0.127,0.441c0.051,0.145,0.104,0.287,0.135,0.438
	c0.054,0.145,0.11,0.287,0.145,0.438c0.057,0.145,0.116,0.287,0.153,0.436c0.059,0.143,0.12,0.281,0.16,0.43
	c0.063,0.143,0.127,0.283,0.17,0.432c0.064,0.141,0.131,0.279,0.176,0.426c0.066,0.137,0.135,0.273,0.183,0.416
	c0.068,0.137,0.141,0.273,0.19,0.418c0.07,0.133,0.144,0.264,0.195,0.404c0.072,0.131,0.148,0.262,0.203,0.401
	c0.072,0.127,0.149,0.254,0.206,0.389c0.075,0.125,0.153,0.25,0.212,0.383c0.077,0.125,0.158,0.246,0.219,0.379
	c0.076,0.117,0.157,0.232,0.218,0.359c0.077,0.115,0.16,0.229,0.224,0.352c0.079,0.113,0.163,0.223,0.228,0.344
	c0.078,0.107,0.162,0.211,0.227,0.326c0.61,0.807,0.873,1.865,0.601,2.92c-0.473,1.84-2.346,2.949-4.183,2.477
	c-0.929-0.238-1.67-0.836-2.116-1.605c-0.111-0.143-0.217-0.287-0.304-0.443C5.355,40.511,5.252,40.36,5.167,40.2
	c-0.108-0.15-0.21-0.305-0.293-0.471c-0.104-0.15-0.203-0.307-0.282-0.471c-0.104-0.158-0.202-0.32-0.28-0.492
	c-0.1-0.156-0.192-0.316-0.266-0.486c-0.101-0.164-0.193-0.332-0.265-0.51c-0.097-0.162-0.186-0.33-0.254-0.508
	c-0.095-0.168-0.182-0.34-0.248-0.521c-0.092-0.17-0.176-0.344-0.238-0.527c-0.089-0.17-0.17-0.346-0.229-0.529
	c-0.088-0.176-0.165-0.357-0.222-0.545c-0.084-0.176-0.158-0.355-0.212-0.542c-0.081-0.18-0.152-0.361-0.202-0.551
	c-0.079-0.182-0.147-0.367-0.193-0.561c-0.075-0.182-0.14-0.367-0.183-0.559c-0.073-0.188-0.134-0.377-0.174-0.572
	c-0.067-0.186-0.124-0.373-0.16-0.566C1.4,31.6,1.348,31.406,1.315,31.207c-0.061-0.188-0.109-0.379-0.137-0.572
	c-0.058-0.191-0.104-0.387-0.127-0.584c-0.053-0.191-0.094-0.387-0.113-0.584c-0.049-0.193-0.085-0.389-0.1-0.588
	c-0.045-0.193-0.077-0.391-0.087-0.588c-0.039-0.195-0.067-0.391-0.072-0.59c-0.035-0.195-0.058-0.393-0.058-0.592
	c-0.03-0.197-0.047-0.395-0.043-0.594c-0.024-0.199-0.036-0.398-0.025-0.596c-0.02-0.199-0.026-0.4-0.012-0.6
	c-0.016-0.203-0.018-0.406,0.002-0.609C0.532,24.506,0.535,24.303,0.56,24.1c-0.006-0.205,0.002-0.41,0.031-0.613
	c-0.001-0.201,0.011-0.402,0.044-0.602c0.003-0.199,0.019-0.398,0.057-0.596c0.007-0.203,0.029-0.407,0.072-0.608
	c0.013-0.197,0.038-0.395,0.084-0.588c0.018-0.199,0.046-0.396,0.098-0.588C0.967,20.308,1,20.111,1.055,19.921
	c0.026-0.197,0.065-0.395,0.125-0.584c0.03-0.195,0.072-0.387,0.136-0.574c0.035-0.195,0.082-0.389,0.15-0.574
	c0.039-0.191,0.088-0.379,0.158-0.559c0.044-0.195,0.1-0.385,0.176-0.568c0.048-0.188,0.105-0.373,0.185-0.551
	c0.052-0.188,0.113-0.373,0.196-0.549c0.057-0.188,0.123-0.371,0.21-0.547c0.061-0.184,0.13-0.365,0.221-0.537
	c0.064-0.184,0.139-0.365,0.233-0.535c0.068-0.18,0.146-0.357,0.242-0.523c0.072-0.18,0.152-0.354,0.253-0.518
	c0.076-0.178,0.162-0.354,0.268-0.516c0.079-0.176,0.168-0.346,0.275-0.506c0.084-0.174,0.178-0.344,0.289-0.502
	c0.087-0.172,0.183-0.338,0.297-0.49c0.091-0.17,0.189-0.334,0.306-0.484c0.096-0.168,0.199-0.332,0.32-0.48
	C5.192,10.158,5.299,10,5.422,9.853c0.103-0.164,0.212-0.32,0.34-0.465c0.104-0.16,0.217-0.314,0.347-0.453
	c0.108-0.158,0.225-0.313,0.358-0.449c0.11-0.154,0.229-0.305,0.364-0.438c0.116-0.154,0.24-0.303,0.38-0.436
	c0.118-0.15,0.242-0.293,0.383-0.42C7.716,7.044,7.846,6.902,7.99,6.777C8.115,6.63,8.247,6.492,8.394,6.369
	c0.128-0.141,0.261-0.275,0.409-0.395c0.132-0.141,0.271-0.273,0.423-0.391c0.134-0.135,0.273-0.266,0.427-0.377
	c0.139-0.137,0.284-0.264,0.442-0.373c0.139-0.131,0.283-0.254,0.441-0.357c0.143-0.129,0.292-0.25,0.454-0.354
	c0.146-0.125,0.297-0.242,0.461-0.34c0.149-0.123,0.305-0.238,0.473-0.334c0.15-0.119,0.307-0.229,0.474-0.32
	c0.154-0.115,0.313-0.223,0.484-0.313c0.156-0.111,0.319-0.217,0.492-0.301c0.158-0.109,0.322-0.209,0.496-0.289
	c0.163-0.107,0.332-0.205,0.51-0.283c0.163-0.102,0.331-0.193,0.509-0.268c0.167-0.1,0.34-0.189,0.521-0.258
	c0.17-0.096,0.344-0.182,0.525-0.248c0.247-0.131,0.51-0.227,0.78-0.295c0.264-0.16,0.54-0.293,0.835-0.377
	c0.975-0.443,2.138-0.432,3.135,0.143c0.076,0.045,0.138,0.102,0.21,0.15c2.21,1.207,5.906,4.561,5.972,4.619
	c0.064-0.059,3.808-3.453,6.012-4.639c0.229-0.152,0.472-0.287,0.742-0.385c0.901-0.32,1.848-0.242,2.647,0.143
	c0.187,0.059,0.37,0.127,0.545,0.217c0.184,0.063,0.363,0.133,0.533,0.225c0.183,0.066,0.36,0.141,0.528,0.236
	c0.182,0.07,0.359,0.15,0.525,0.25c0.179,0.074,0.354,0.156,0.517,0.26c0.177,0.076,0.349,0.164,0.51,0.27
	c0.175,0.082,0.346,0.172,0.505,0.281c0.173,0.086,0.342,0.18,0.498,0.293c0.169,0.088,0.334,0.186,0.485,0.299
	c0.169,0.094,0.333,0.195,0.484,0.314c0.165,0.096,0.326,0.199,0.474,0.32c0.166,0.102,0.325,0.209,0.472,0.336
	c0.16,0.104,0.315,0.213,0.456,0.34c0.16,0.107,0.314,0.221,0.454,0.354c0.157,0.109,0.309,0.229,0.445,0.363
	C43.853,5,44,5.119,44.132,5.253c0.153,0.117,0.3,0.242,0.431,0.383c0.149,0.119,0.292,0.246,0.419,0.389
	c0.146,0.123,0.287,0.254,0.411,0.398c0.144,0.127,0.281,0.26,0.401,0.406c0.142,0.129,0.276,0.266,0.394,0.416
	c0.139,0.133,0.271,0.271,0.385,0.424c0.137,0.137,0.266,0.279,0.377,0.436c0.133,0.139,0.258,0.283,0.365,0.439
	c0.13,0.143,0.253,0.291,0.357,0.451c0.125,0.143,0.244,0.291,0.345,0.453c0.124,0.148,0.24,0.301,0.338,0.467
	c0.121,0.15,0.233,0.305,0.327,0.471c0.118,0.154,0.228,0.313,0.318,0.484c0.114,0.154,0.22,0.314,0.307,0.484
	c0.11,0.158,0.213,0.32,0.296,0.494c0.107,0.16,0.207,0.326,0.287,0.502c0.104,0.164,0.199,0.332,0.275,0.51
	c0.101,0.166,0.193,0.338,0.265,0.518c0.097,0.166,0.185,0.336,0.251,0.516c0.096,0.172,0.181,0.35,0.245,0.533
	c0.089,0.172,0.17,0.348,0.229,0.531c0.088,0.178,0.165,0.359,0.221,0.547c0.082,0.176,0.154,0.354,0.205,0.539
	c0.08,0.18,0.149,0.365,0.197,0.557c0.075,0.182,0.141,0.365,0.184,0.557c0.072,0.184,0.133,0.373,0.173,0.566
	c0.067,0.186,0.124,0.375,0.159,0.57c0.063,0.188,0.115,0.377,0.146,0.57c0.06,0.191,0.107,0.385,0.134,0.582
	c0.056,0.189,0.1,0.383,0.121,0.58c0.052,0.193,0.092,0.391,0.109,0.588c0.048,0.197,0.083,0.396,0.096,0.598
	c0.043,0.197,0.073,0.396,0.081,0.6c0.038,0.196,0.064,0.393,0.068,0.592c0.035,0.201,0.057,0.404,0.057,0.607
	c0.03,0.203,0.047,0.406,0.041,0.611C53.174,23.826,53.186,24.031,53.175,24.236z"/>
</svg>
