<svg xmlns="http://www.w3.org/2000/svg" width="180" height="180" viewBox="0 0 180 180"><defs><style>.a{fill:#e21b1b;}.b{fill:#c40606;}.c{fill:#fff;}</style></defs><circle class="a" cx="90" cy="90" r="90"/><path class="b" d="M276.822,192.987,226.77,142.936l-76.522,79.338,49.545,49.545A90.017,90.017,0,0,0,276.822,192.987Z" transform="translate(-97.426 -92.685)"/><g transform="translate(49.408 48.412)"><path class="c" d="M215.721,219.914a7.015,7.015,0,0,1-4.973-2.059l-68.141-68.144a7.03,7.03,0,0,1,9.942-9.942l68.144,68.144a7.03,7.03,0,0,1-4.972,12Z" transform="translate(-140.543 -137.708)"/><path class="c" d="M147.571,219.912a7.03,7.03,0,0,1-4.973-12l68.144-68.144a7.03,7.03,0,1,1,9.942,9.942l-68.141,68.144A7.01,7.01,0,0,1,147.571,219.912Z" transform="translate(-140.538 -137.706)"/></g></svg>