<svg id="visual" viewBox="0 0 1024 768" width="1024" height="768" xmlns="http://www.w3.org/2000/svg" xmlns:xlink="http://www.w3.org/1999/xlink" version="1.1"><rect x="0" y="0" width="1024" height="768" fill="#ffffff"></rect><defs><linearGradient id="grad1_0" x1="25%" y1="0%" x2="100%" y2="100%"><stop offset="23.333333333333336%" stop-color="#4facf7" stop-opacity="1"></stop><stop offset="76.66666666666666%" stop-color="#4facf7" stop-opacity="1"></stop></linearGradient></defs><defs><linearGradient id="grad1_1" x1="25%" y1="0%" x2="100%" y2="100%"><stop offset="23.333333333333336%" stop-color="#4facf7" stop-opacity="1"></stop><stop offset="76.66666666666666%" stop-color="#78b9f9" stop-opacity="1"></stop></linearGradient></defs><defs><linearGradient id="grad1_2" x1="25%" y1="0%" x2="100%" y2="100%"><stop offset="23.333333333333336%" stop-color="#98c7fa" stop-opacity="1"></stop><stop offset="76.66666666666666%" stop-color="#78b9f9" stop-opacity="1"></stop></linearGradient></defs><defs><linearGradient id="grad1_3" x1="25%" y1="0%" x2="100%" y2="100%"><stop offset="23.333333333333336%" stop-color="#98c7fa" stop-opacity="1"></stop><stop offset="76.66666666666666%" stop-color="#b4d4fc" stop-opacity="1"></stop></linearGradient></defs><defs><linearGradient id="grad1_4" x1="25%" y1="0%" x2="100%" y2="100%"><stop offset="23.333333333333336%" stop-color="#cee2fd" stop-opacity="1"></stop><stop offset="76.66666666666666%" stop-color="#b4d4fc" stop-opacity="1"></stop></linearGradient></defs><defs><linearGradient id="grad1_5" x1="25%" y1="0%" x2="100%" y2="100%"><stop offset="23.333333333333336%" stop-color="#cee2fd" stop-opacity="1"></stop><stop offset="76.66666666666666%" stop-color="#e7f1fe" stop-opacity="1"></stop></linearGradient></defs><defs><linearGradient id="grad1_6" x1="25%" y1="0%" x2="100%" y2="100%"><stop offset="23.333333333333336%" stop-color="#ffffff" stop-opacity="1"></stop><stop offset="76.66666666666666%" stop-color="#e7f1fe" stop-opacity="1"></stop></linearGradient></defs><defs><linearGradient id="grad2_0" x1="0%" y1="0%" x2="75%" y2="100%"><stop offset="23.333333333333336%" stop-color="#4facf7" stop-opacity="1"></stop><stop offset="76.66666666666666%" stop-color="#4facf7" stop-opacity="1"></stop></linearGradient></defs><defs><linearGradient id="grad2_1" x1="0%" y1="0%" x2="75%" y2="100%"><stop offset="23.333333333333336%" stop-color="#78b9f9" stop-opacity="1"></stop><stop offset="76.66666666666666%" stop-color="#4facf7" stop-opacity="1"></stop></linearGradient></defs><defs><linearGradient id="grad2_2" x1="0%" y1="0%" x2="75%" y2="100%"><stop offset="23.333333333333336%" stop-color="#78b9f9" stop-opacity="1"></stop><stop offset="76.66666666666666%" stop-color="#98c7fa" stop-opacity="1"></stop></linearGradient></defs><defs><linearGradient id="grad2_3" x1="0%" y1="0%" x2="75%" y2="100%"><stop offset="23.333333333333336%" stop-color="#b4d4fc" stop-opacity="1"></stop><stop offset="76.66666666666666%" stop-color="#98c7fa" stop-opacity="1"></stop></linearGradient></defs><defs><linearGradient id="grad2_4" x1="0%" y1="0%" x2="75%" y2="100%"><stop offset="23.333333333333336%" stop-color="#b4d4fc" stop-opacity="1"></stop><stop offset="76.66666666666666%" stop-color="#cee2fd" stop-opacity="1"></stop></linearGradient></defs><defs><linearGradient id="grad2_5" x1="0%" y1="0%" x2="75%" y2="100%"><stop offset="23.333333333333336%" stop-color="#e7f1fe" stop-opacity="1"></stop><stop offset="76.66666666666666%" stop-color="#cee2fd" stop-opacity="1"></stop></linearGradient></defs><defs><linearGradient id="grad2_6" x1="0%" y1="0%" x2="75%" y2="100%"><stop offset="23.333333333333336%" stop-color="#e7f1fe" stop-opacity="1"></stop><stop offset="76.66666666666666%" stop-color="#ffffff" stop-opacity="1"></stop></linearGradient></defs><g transform="translate(1024, 0)"><path d="M0 544C-42.9 492.6 -85.7 441.2 -138.7 427C-191.8 412.9 -254.9 435.9 -308.6 424.7C-362.2 413.5 -406.4 368.1 -440.1 319.8C-473.8 271.5 -497 220.3 -512.6 166.6C-528.2 112.8 -536.1 56.4 -544 0L0 0Z" fill="#f3f8ff"></path><path d="M0 466.3C-36.7 422.2 -73.5 378.2 -118.9 366C-164.4 353.9 -218.5 373.7 -264.5 364.1C-310.5 354.5 -348.3 315.5 -377.2 274.1C-406.1 232.7 -426 188.8 -439.4 142.8C-452.7 96.7 -459.5 48.3 -466.3 0L0 0Z" fill="#dbe9fd"></path><path d="M0 388.6C-30.6 351.9 -61.2 315.1 -99.1 305C-137 294.9 -182.1 311.4 -220.4 303.4C-258.7 295.4 -290.3 262.9 -314.4 228.4C-338.4 193.9 -355 157.4 -366.2 119C-377.3 80.6 -382.9 40.3 -388.6 0L0 0Z" fill="#c1dbfc"></path><path d="M0 310.9C-24.5 281.5 -49 252.1 -79.3 244C-109.6 235.9 -145.7 249.1 -176.3 242.7C-207 236.3 -232.2 210.3 -251.5 182.7C-270.7 155.1 -284 125.9 -292.9 95.2C-301.8 64.5 -306.3 32.2 -310.9 0L0 0Z" fill="#a6cefb"></path><path d="M0 233.1C-18.4 211.1 -36.7 189.1 -59.5 183C-82.2 176.9 -109.3 186.8 -132.3 182C-155.2 177.2 -174.2 157.7 -188.6 137C-203.1 116.3 -213 94.4 -219.7 71.4C-226.4 48.3 -229.8 24.2 -233.1 0L0 0Z" fill="#88c0f9"></path><path d="M0 155.4C-12.2 140.7 -24.5 126.1 -39.6 122C-54.8 118 -72.8 124.6 -88.2 121.4C-103.5 118.2 -116.1 105.2 -125.7 91.4C-135.4 77.6 -142 62.9 -146.5 47.6C-150.9 32.2 -153.2 16.1 -155.4 0L0 0Z" fill="#65b3f8"></path><path d="M0 77.7C-6.1 70.4 -12.2 63 -19.8 61C-27.4 59 -36.4 62.3 -44.1 60.7C-51.7 59.1 -58.1 52.6 -62.9 45.7C-67.7 38.8 -71 31.5 -73.2 23.8C-75.5 16.1 -76.6 8.1 -77.7 0L0 0Z" fill="#4facf7"></path></g><g transform="translate(0, 768)"><path d="M0 -544C49.5 -519.2 98.9 -494.4 157 -483.1C215.1 -471.9 281.7 -474.2 319.8 -440.1C357.8 -406 367.1 -335.3 390.8 -283.9C414.4 -232.5 452.4 -200.2 480.3 -156.1C508.2 -111.9 526.1 -56 544 0L0 0Z" fill="#f3f8ff"></path><path d="M0 -466.3C42.4 -445 84.8 -423.7 134.6 -414.1C184.3 -404.5 241.5 -406.5 274.1 -377.2C306.7 -348 314.7 -287.4 334.9 -243.3C355.2 -199.2 387.7 -171.6 411.7 -133.8C435.6 -95.9 450.9 -48 466.3 0L0 0Z" fill="#dbe9fd"></path><path d="M0 -388.6C35.3 -370.8 70.6 -353.1 112.1 -345.1C153.6 -337.1 201.2 -338.7 228.4 -314.4C255.5 -290 262.2 -239.5 279.1 -202.8C296 -166 323.1 -143 343.1 -111.5C363 -80 375.8 -40 388.6 0L0 0Z" fill="#c1dbfc"></path><path d="M0 -310.9C28.3 -296.7 56.5 -282.5 89.7 -276.1C122.9 -269.7 161 -271 182.7 -251.5C204.4 -232 209.8 -191.6 223.3 -162.2C236.8 -132.8 258.5 -114.4 274.4 -89.2C290.4 -64 300.6 -32 310.9 0L0 0Z" fill="#a6cefb"></path><path d="M0 -233.1C21.2 -222.5 42.4 -211.9 67.3 -207.1C92.2 -202.2 120.7 -203.2 137 -188.6C153.3 -174 157.3 -143.7 167.5 -121.7C177.6 -99.6 193.9 -85.8 205.8 -66.9C217.8 -48 225.5 -24 233.1 0L0 0Z" fill="#88c0f9"></path><path d="M0 -155.4C14.1 -148.3 28.3 -141.2 44.9 -138C61.4 -134.8 80.5 -135.5 91.4 -125.7C102.2 -116 104.9 -95.8 111.6 -81.1C118.4 -66.4 129.2 -57.2 137.2 -44.6C145.2 -32 150.3 -16 155.4 0L0 0Z" fill="#65b3f8"></path><path d="M0 -77.7C7.1 -74.2 14.1 -70.6 22.4 -69C30.7 -67.4 40.2 -67.7 45.7 -62.9C51.1 -58 52.4 -47.9 55.8 -40.6C59.2 -33.2 64.6 -28.6 68.6 -22.3C72.6 -16 75.2 -8 77.7 0L0 0Z" fill="#4facf7"></path></g></svg>